<?xml version="1.0" standalone="no"?>
<!DOCTYPE svg PUBLIC "-//W3C//DTD SVG 20010904//EN"
 "http://www.w3.org/TR/2001/REC-SVG-20010904/DTD/svg10.dtd">
<svg version="1.0" xmlns="http://www.w3.org/2000/svg"
 width="187.000000pt" height="187.000000pt" viewBox="0 0 187.000000 187.000000"
 preserveAspectRatio="xMidYMid meet">
<metadata>
Created by potrace 1.11, written by Peter Selinger 2001-2013
</metadata>
<g transform="translate(0.000000,187.000000) scale(0.100000,-0.100000)"
fill="#000000" stroke="none">
<path d="M282 1774 c-143 -29 -234 -117 -263 -254 -33 -154 -5 -328 68 -417
54 -66 182 -120 283 -118 l25 0 1 400 0 400 -28 0 c-15 1 -54 -5 -86 -11z"/>
<path d="M486 1781 c-1 -3 -2 -184 -2 -401 l1 -395 30 1 c61 1 151 25 203 54
106 61 155 170 155 345 1 250 -112 382 -341 398 -24 2 -44 1 -46 -2z"/>
<path d="M1280 1778 c-63 -10 -142 -44 -185 -81 -71 -59 -113 -190 -110 -333
7 -241 129 -369 360 -378 l30 -1 0 400 c0 456 11 409 -95 393z"/>
<path d="M1476 1781 c-2 -3 -3 -184 -3 -402 l0 -397 26 4 c14 2 47 5 74 8 99
10 203 78 245 163 42 83 56 198 40 319 -20 150 -100 250 -231 288 -55 16 -146
26 -151 17z"/>
<path d="M1338 885 c-2 -1 -27 -5 -55 -8 -60 -6 -143 -42 -188 -80 -72 -60
-113 -187 -109 -333 6 -231 115 -354 336 -378 31 -3 48 -1 50 7 2 7 4 187 4
401 -1 357 -2 389 -18 392 -9 1 -18 1 -20 -1z"/>
<path d="M1476 881 c-2 -3 -3 -183 -3 -398 0 -280 3 -393 11 -394 27 -4 94 3
131 13 159 42 239 157 248 358 10 221 -81 368 -254 409 -56 14 -129 20 -133
12z"/>
</g>
</svg>
