<?xml version="1.0" encoding="UTF-8"?>
<!DOCTYPE svg PUBLIC "-//W3C//DTD SVG 1.1//EN" "http://www.w3.org/Graphics/SVG/1.1/DTD/svg11.dtd">
<svg xmlns="http://www.w3.org/2000/svg" version="1.1" width="1300px" height="206px" style="shape-rendering:geometricPrecision; text-rendering:geometricPrecision; image-rendering:optimizeQuality; fill-rule:evenodd; clip-rule:evenodd" xmlns:xlink="http://www.w3.org/1999/xlink">
<g><path style="opacity:0.935" fill="#001a3a" d="M 1239.5,-0.5 C 1245.5,-0.5 1251.5,-0.5 1257.5,-0.5C 1265.46,20.4176 1273.13,41.4176 1280.5,62.5C 1275.17,62.5 1269.83,62.5 1264.5,62.5C 1263.7,58.7653 1262.7,55.0986 1261.5,51.5C 1252.81,51.1686 1244.14,51.502 1235.5,52.5C 1234.06,55.643 1232.73,58.8096 1231.5,62C 1226.14,62.8295 1220.8,62.6628 1215.5,61.5C 1223.52,40.8078 1231.52,20.1411 1239.5,-0.5 Z M 1247.5,15.5 C 1251.29,23.0109 1254.62,30.8443 1257.5,39C 1251.47,39.8303 1245.47,39.6636 1239.5,38.5C 1242.57,30.9484 1245.24,23.2817 1247.5,15.5 Z"/></g>
<g><path style="opacity:0.949" fill="#001a3a" d="M 1285.5,-0.5 C 1290.17,-0.5 1294.83,-0.5 1299.5,-0.5C 1299.5,20.5 1299.5,41.5 1299.5,62.5C 1294.83,62.5 1290.17,62.5 1285.5,62.5C 1285.5,41.5 1285.5,20.5 1285.5,-0.5 Z"/></g>
<g><path style="opacity:0.976" fill="#001a3a" d="M -0.5,31.5 C 31.5017,31.3334 63.5017,31.5 95.5,32C 126.081,35.6781 140.248,52.8447 138,83.5C 135.241,98.5461 126.741,108.713 112.5,114C 137.213,124.93 146.38,143.764 140,170.5C 133.165,189.979 119.332,200.479 98.5,202C 65.5017,202.5 32.5017,202.667 -0.5,202.5C -0.5,145.5 -0.5,88.5 -0.5,31.5 Z M 36.5,64.5 C 54.2225,64.0553 71.8892,64.5553 89.5,66C 100.309,71.7588 103.142,80.2588 98,91.5C 95.6351,94.8691 92.4685,97.0357 88.5,98C 71.2145,99.4282 53.8811,99.9282 36.5,99.5C 36.5,87.8333 36.5,76.1667 36.5,64.5 Z M 36.5,131.5 C 54.5473,131.069 72.5473,131.569 90.5,133C 103.637,138.797 107.137,148.297 101,161.5C 98.7357,164.433 95.9024,166.6 92.5,168C 73.8884,169.448 55.2218,169.948 36.5,169.5C 36.5,156.833 36.5,144.167 36.5,131.5 Z"/></g>
<g><path style="opacity:0.978" fill="#001a3a" d="M 827.5,31.5 C 838.5,31.5 849.5,31.5 860.5,31.5C 860.5,88.5 860.5,145.5 860.5,202.5C 849.5,202.5 838.5,202.5 827.5,202.5C 827.5,145.5 827.5,88.5 827.5,31.5 Z"/></g>
<g><path style="opacity:0.966" fill="#001a3a" d="M 1206.5,205.5 C 1201.83,205.5 1197.17,205.5 1192.5,205.5C 1175.18,203.677 1165.68,194.01 1164,176.5C 1163.5,153.502 1163.33,130.502 1163.5,107.5C 1156.83,107.5 1150.17,107.5 1143.5,107.5C 1143.5,97.8333 1143.5,88.1667 1143.5,78.5C 1150.17,78.5 1156.83,78.5 1163.5,78.5C 1163.5,67.5 1163.5,56.5 1163.5,45.5C 1174.83,45.5 1186.17,45.5 1197.5,45.5C 1197.5,56.5 1197.5,67.5 1197.5,78.5C 1205.5,78.5 1213.5,78.5 1221.5,78.5C 1221.5,88.1667 1221.5,97.8333 1221.5,107.5C 1213.5,107.5 1205.5,107.5 1197.5,107.5C 1197.33,127.503 1197.5,147.503 1198,167.5C 1200.51,174.34 1205.35,176.84 1212.5,175C 1214.9,174.269 1217.07,173.102 1219,171.5C 1221.6,179.798 1224.1,188.131 1226.5,196.5C 1220.76,201.704 1214.1,204.704 1206.5,205.5 Z"/></g>
<g><path style="opacity:0.97" fill="#001a3a" d="M 226.5,205.5 C 221.167,205.5 215.833,205.5 210.5,205.5C 173.236,200.057 153.57,178.39 151.5,140.5C 152.498,110.974 166.498,90.4741 193.5,79C 221.014,70.5848 244.514,76.7515 264,97.5C 275.069,113.775 279.569,131.775 277.5,151.5C 247.5,151.5 217.5,151.5 187.5,151.5C 191.551,169.13 202.717,177.796 221,177.5C 233.554,177.65 244.554,173.65 254,165.5C 259.537,172.739 264.704,180.239 269.5,188C 256.915,198.248 242.582,204.081 226.5,205.5 Z M 213.5,102.5 C 231.75,102.101 242.417,110.768 245.5,128.5C 225.833,128.5 206.167,128.5 186.5,128.5C 189.035,112.962 198.035,104.296 213.5,102.5 Z"/></g>
<g><path style="opacity:0.959" fill="#001a3a" d="M 360.5,75.5 C 371.214,74.5691 381.547,76.0691 391.5,80C 402.028,86.5459 407.862,96.0459 409,108.5C 409.5,139.832 409.667,171.165 409.5,202.5C 398.167,202.5 386.833,202.5 375.5,202.5C 375.667,175.165 375.5,147.831 375,120.5C 372.313,109.643 365.313,104.643 354,105.5C 342.93,105.535 333.93,109.869 327,118.5C 326.5,146.498 326.333,174.498 326.5,202.5C 315.167,202.5 303.833,202.5 292.5,202.5C 292.5,161.167 292.5,119.833 292.5,78.5C 303.833,78.5 315.167,78.5 326.5,78.5C 326.334,83.1785 326.501,87.8452 327,92.5C 336.542,83.4794 347.709,77.8128 360.5,75.5 Z"/></g>
<g><path style="opacity:0.969" fill="#001a3a" d="M 499.5,205.5 C 494.167,205.5 488.833,205.5 483.5,205.5C 446.112,200.105 426.446,178.439 424.5,140.5C 425.083,113.132 437.417,93.2987 461.5,81C 482.789,72.6642 503.455,73.9975 523.5,85C 538.884,96.2565 547.717,111.423 550,130.5C 550.5,137.492 550.666,144.492 550.5,151.5C 520.165,151.333 489.832,151.5 459.5,152C 463.267,165.434 471.934,173.768 485.5,177C 501.146,179.448 514.979,175.615 527,165.5C 531.667,172.167 536.333,178.833 541,185.5C 541.781,186.944 541.614,188.277 540.5,189.5C 528.32,198.78 514.653,204.113 499.5,205.5 Z M 486.5,102.5 C 504.639,102.209 515.305,110.876 518.5,128.5C 498.833,128.5 479.167,128.5 459.5,128.5C 462.026,112.972 471.026,104.305 486.5,102.5 Z"/></g>
<g><path style="opacity:0.971" fill="#001a3a" d="M 752.5,205.5 C 747.833,205.5 743.167,205.5 738.5,205.5C 703.046,198.372 683.712,176.705 680.5,140.5C 682.26,109.123 697.927,88.2897 727.5,78C 763.367,70.5187 789.533,83.0187 806,115.5C 817.124,150.711 807.29,178.211 776.5,198C 768.723,201.651 760.723,204.151 752.5,205.5 Z M 744.5,107.5 C 764.353,109.686 775.686,120.686 778.5,140.5C 775.991,160.01 764.991,170.676 745.5,172.5C 725.833,170.833 715.167,160.167 713.5,140.5C 715.289,121.38 725.622,110.38 744.5,107.5 Z"/></g>
<g><path style="opacity:0.968" fill="#001a3a" d="M 950.5,205.5 C 945.167,205.5 939.833,205.5 934.5,205.5C 897.88,199.706 878.546,178.206 876.5,141C 876.913,112.485 889.913,92.1514 915.5,80C 942.679,70.4403 966.513,75.607 987,95.5C 999.293,112.103 1004.46,130.77 1002.5,151.5C 972.159,151.167 941.826,151.5 911.5,152.5C 918.841,172.514 933.174,180.68 954.5,177C 963.78,175.442 971.947,171.609 979,165.5C 983.086,172.007 987.42,178.34 992,184.5C 992.982,185.759 993.315,187.092 993,188.5C 988.262,193.123 982.762,196.623 976.5,199C 967.934,202.14 959.267,204.307 950.5,205.5 Z M 938.5,102.5 C 956.239,102.678 966.905,111.344 970.5,128.5C 950.833,128.5 931.167,128.5 911.5,128.5C 913.994,113.005 922.994,104.338 938.5,102.5 Z"/></g>
<g><path style="opacity:0.978" fill="#001a3a" d="M 1084.5,75.5 C 1101.22,72.9059 1115.38,77.5726 1127,89.5C 1129.84,94.1719 1131.84,99.1719 1133,104.5C 1133.5,137.165 1133.67,169.832 1133.5,202.5C 1122.5,202.5 1111.5,202.5 1100.5,202.5C 1100.96,174.458 1100.46,146.458 1099,118.5C 1095.38,109.266 1088.55,104.933 1078.5,105.5C 1067.05,105.808 1057.88,110.474 1051,119.5C 1050.5,147.165 1050.33,174.831 1050.5,202.5C 1039.5,202.5 1028.5,202.5 1017.5,202.5C 1017.5,161.167 1017.5,119.833 1017.5,78.5C 1028.5,78.5 1039.5,78.5 1050.5,78.5C 1050.33,83.1785 1050.5,87.8452 1051,92.5C 1060.53,83.4829 1071.7,77.8162 1084.5,75.5 Z"/></g>
<g><path style="opacity:0.967" fill="#001a3a" d="M 548.5,78.5 C 560.414,78.1785 572.247,78.5118 584,79.5C 594.333,106.833 604.667,134.167 615,161.5C 626.384,134.182 636.884,106.515 646.5,78.5C 658.5,78.5 670.5,78.5 682.5,78.5C 666.463,119.581 650.13,160.581 633.5,201.5C 621.5,202.833 609.5,202.833 597.5,201.5C 580.57,160.703 564.236,119.703 548.5,78.5 Z"/></g>
</svg>
