<svg xmlns="http://www.w3.org/2000/svg" viewBox="0 0 2502 837"><g fill="none" stroke-width="2"><path stroke="#8db767" d="M492.36 130.17q-9.58 18.42-25.94 32.49-17.29 14.87-37.12 26.13-29.36 16.67-60.64 28.75" vector-effect="non-scaling-stroke"/><path stroke="#639484" d="M368.37 218q-2.57-9.69-5.2-19.48c-.38-1.41.04-2.99-.62-4.57-23.01-54.75-57.69-109.11-98.08-153.15" vector-effect="non-scaling-stroke"/><path stroke="#537ea6" d="m194.43 304.44-.98 1.7a.45.44 22.9 0 0 .27.65q8.59 2.52 17.08 5.32c3.2 1.06 6.91 1.12 10.35 1.94 7.01 1.68 14.94.99 22.12.95q5.78-.04 11.33-1.14 10.82-2.16 14.21-3.3 29.92-10.06 51.35-33.16a2.07 2.07 0 0 0 .48-.88q.44-1.64 1.81-2.72.37-.29.56-.72c.79-1.85 2.45-3.11 3.37-4.46q13.19-19.26 17.75-42.26.1-.51.43-.9c1.43-1.68.26-4.96 1.46-7.24q.23-.45.23-.96l-.01-23.02q0-.43-.21-.82c-1.7-3-1.11-6.2-1.79-8.9-1.39-5.58-2.41-11.24-4.96-16.52-2.43-5.04-4.52-10.11-7.03-15.1-.78-1.55-1.37-3.99-2.73-5.75-2.02-2.63-2.86-3.89-4.17-6.04-1.46-2.41-3.58-4.44-5.25-6.75-3.35-4.63-8.66-9.85-13.32-13.15-3.49-2.47-7.07-5.65-10.13-7.62Q279.99 102.83 263 99c-9.74-2.2-20.8-2.43-32.63-2.52q-3.99-.03-3.26 2.53" vector-effect="non-scaling-stroke"/><path stroke="#6a97c3" d="M198.51 56.26q15.38 20.97 28.6 42.75" vector-effect="non-scaling-stroke"/><path stroke="#628cb5" d="M227.11 99.01q21.32 34.94 37.68 77.68c9.14 23.9 13.06 50.78-2.54 72.57-17.06 23.82-42.65 40.71-67.82 55.18" vector-effect="non-scaling-stroke"/><path stroke="#6a97c3" d="M194.43 304.44q-30.12 17.18-62.24 30.26-.2.08-.61-.01-.44-.1-.68.28l-.28.45" vector-effect="non-scaling-stroke"/><path stroke="#8cb3d8" d="M49.48 186.75q.76.2 1.37-2.38a.16.16 0 0 1 .31.05c-.21 1.92-.7 3.52-.71 5.37-.14 33.18 12.45 83.4 51.07 91.22 7.47 1.52 15.26-1.39 22.05-4.24 18.01-7.57 32.77-28.18 40.23-45.2 14.14-32.28 18.44-71.18 9.54-105.65-.71-2.74-1.71-5.73-2.27-8.2-2.09-9.09-7.46-18.5-12.26-26.45-.78-1.3-2.07-2.21-3-3.43-7.19-9.44-20.94-19.42-33.48-17.85q-.41.05-.51-.35-.21-.91-1.26-1.17" vector-effect="non-scaling-stroke"/></g><path fill="#6a9f54" d="M492.36 130.17q-9.58 18.42-25.94 32.49-17.29 14.87-37.12 26.13-29.36 16.67-60.64 28.75-.15.23-.29.46-2.57-9.69-5.2-19.48c-.38-1.41.04-2.99-.62-4.57-23.01-54.75-57.69-109.11-98.08-153.15l-6.95-10.09a.47.47 0 0 1 .25-.72c79.67-22.86 162.72 3.25 216.18 66.06 1.4 1.65 2.2 3.96 3.69 5.72q10.39 12.31 14.72 28.4Z"/><path fill="#78a5d1" d="M198.51 56.26q15.38 20.97 28.6 42.75 21.32 34.94 37.68 77.68c9.14 23.9 13.06 50.78-2.54 72.57-17.06 23.82-42.65 40.71-67.82 55.18q-30.12 17.18-62.24 30.26-.2.08-.61-.01-.44-.1-.68.28l-.28.45q-23.62 9.5-48.15 16.96-.51.15-.8-.3-1.78-2.83-4.1-7.14C51.9 297.17 39.45 240.65 49.48 186.75q.76.2 1.37-2.38a.16.16 0 0 1 .31.05c-.21 1.92-.7 3.52-.71 5.37-.14 33.18 12.45 83.4 51.07 91.22 7.47 1.52 15.26-1.39 22.05-4.24 18.01-7.57 32.77-28.18 40.23-45.2 14.14-32.28 18.44-71.18 9.54-105.65-.71-2.74-1.71-5.73-2.27-8.2-2.09-9.09-7.46-18.5-12.26-26.45-.78-1.3-2.07-2.21-3-3.43-7.19-9.44-20.94-19.42-33.48-17.85q-.41.05-.51-.35-.21-.91-1.26-1.17 25.77-22.65 56.36-38.13a1.26 1.26 0 0 1 1.56.34l20.03 25.58Z"/><path fill="#5b89b4" d="M264.47 40.8c40.39 44.04 75.07 98.4 98.08 153.15.66 1.58.24 3.16.62 4.57q2.63 9.79 5.2 19.48c.32 5.87 1.27 12.57 1.2 17.69-.33 23.45-13.87 43.95-31.37 58.76q-18.93 16.02-40.3 28.68-50.32 29.81-105.97 47.91-14.11 4.59-28.2 9.25-.48.16-.8-.23c-8.91-10.5-18.98-19.71-25.25-32.29q-3.14-6.3-7.06-12.35l.28-.45q.24-.38.68-.28.41.09.61.01 32.12-13.08 62.24-30.26l-.98 1.7a.45.44 22.9 0 0 .27.65q8.59 2.52 17.08 5.32c3.2 1.06 6.91 1.12 10.35 1.94 7.01 1.68 14.94.99 22.12.95q5.78-.04 11.33-1.14 10.82-2.16 14.21-3.3 29.92-10.06 51.35-33.16a2.07 2.07 0 0 0 .48-.88q.44-1.64 1.81-2.72.37-.29.56-.72c.79-1.85 2.45-3.11 3.37-4.46q13.19-19.26 17.75-42.26.1-.51.43-.9c1.43-1.68.26-4.96 1.46-7.24q.23-.45.23-.96l-.01-23.02q0-.43-.21-.82c-1.7-3-1.11-6.2-1.79-8.9-1.39-5.58-2.41-11.24-4.96-16.52-2.43-5.04-4.52-10.11-7.03-15.1-.78-1.55-1.37-3.99-2.73-5.75-2.02-2.63-2.86-3.89-4.17-6.04-1.46-2.41-3.58-4.44-5.25-6.75-3.35-4.63-8.66-9.85-13.32-13.15-3.49-2.47-7.07-5.65-10.13-7.62Q279.99 102.83 263 99c-9.74-2.2-20.8-2.43-32.63-2.52q-3.99-.03-3.26 2.53-13.22-21.78-28.6-42.75 12.98-6.74 17.23-9.49c2.97-1.93 5.89-2.04 8.59-3.63 7.35-4.33 16.45-6.81 24.35-10.24q2.39-1.04 6.34-1.25a1.1 1.09-23.3 0 1 .86.34l8.59 8.81Z"/><path fill="#a0c1df" d="M120.56 68.47q1.05.26 1.26 1.17.1.4.51.35c12.54-1.57 26.29 8.41 33.48 17.85.93 1.22 2.22 2.13 3 3.43 4.8 7.95 10.17 17.36 12.26 26.45.56 2.47 1.56 5.46 2.27 8.2 8.9 34.47 4.6 73.37-9.54 105.65-7.46 17.02-22.22 37.63-40.23 45.2-6.79 2.85-14.58 5.76-22.05 4.24-38.62-7.82-51.21-58.04-51.07-91.22.01-1.85.5-3.45.71-5.37a.16.16 0 0 0-.31-.05q-.61 2.58-1.37 2.38c9.04-46.65 35.29-87.45 71.08-118.28Z"/><path fill="#4b7398" d="M194.43 304.44c25.17-14.47 50.76-31.36 67.82-55.18 15.6-21.79 11.68-48.67 2.54-72.57q-16.36-42.74-37.68-77.68-.73-2.56 3.26-2.53c11.83.09 22.89.32 32.63 2.52q16.99 3.83 33.65 14.59c3.06 1.97 6.64 5.15 10.13 7.62 4.66 3.3 9.97 8.52 13.32 13.15 1.67 2.31 3.79 4.34 5.25 6.75 1.31 2.15 2.15 3.41 4.17 6.04 1.36 1.76 1.95 4.2 2.73 5.75 2.51 4.99 4.6 10.06 7.03 15.1 2.55 5.28 3.57 10.94 4.96 16.52.68 2.7.09 5.9 1.79 8.9q.21.39.21.82l.01 23.02q0 .51-.23.96c-1.2 2.28-.03 5.56-1.46 7.24q-.33.39-.43.9-4.56 23-17.75 42.26c-.92 1.35-2.58 2.61-3.37 4.46q-.19.43-.56.72-1.37 1.08-1.81 2.72a2.07 2.07 0 0 1-.48.88q-21.43 23.1-51.35 33.16-3.39 1.14-14.21 3.3-5.55 1.1-11.33 1.14c-7.18.04-15.11.73-22.12-.95-3.44-.82-7.15-.88-10.35-1.94q-8.49-2.8-17.08-5.32a.45.44 22.9 0 1-.27-.65l.98-1.7Z"/><path fill="#afce79" d="M368.66 217.54q31.28-12.08 60.64-28.75 19.83-11.26 37.12-26.13 16.36-14.07 25.94-32.49l1-2.06a.78.78 0 0 1 1.4-.01c11.02 21.88 18.99 44.47 23.05 68.76q.26 1.52 1.53 5.09c1.21 3.39.83 7.72 1.04 10.26q.71 8.3 1.32 16.6c.54 7.23-1.51 15.29-1.38 23.1q.15 9.31-1.36 18.51-.09.5-.41.89-1.64 1.95-1.75 3.94c-.61 11.22-5.27 22.19-9.09 32.63-2.2 5.99-5.69 12.65-8.48 19.11-4 9.25-11.17 18.28-16.8 26.71a1.43 1.38 7.4 0 1-.74.55c-47.72 14.86-107.52-29.63-141.13-59.17a.73.73 0 0 1 0-1.1c23.41-20.23 34.72-45.03 28.1-76.44Z"/><path fill="#2573ba" d="M822.13 466.18a.36.36 0 0 0 .01.71c60.7 9.8 98.08 55.94 94.57 118.1q-2.27 40.18-27.3 70.68c-27.19 33.14-70.33 40.77-111.23 40.8q-95.71.07-191.19.02a.75.74-90 0 1-.74-.75l.01-441.75a.69.68 90 0 1 .68-.69q86.38-.18 173.05.07c20.6.06 40.79 1.84 60.99 5.97 29.02 5.93 47.48 21.43 63.44 45.53 15.23 23.01 19.79 49.97 16.8 77.13-4.79 43.4-36.3 75.76-79.09 84.18Zm2.24-91.75c-.93-20.78-8.72-36.31-27.43-46.38q-19.24-10.35-40.7-10.35-47.61.01-95.01.08a.48.48 0 0 0-.48.48v121.48q0 .5.5.5 47.97.08 95.94-.16 9.2-.04 16.31-1.36c31.3-5.81 52.3-32.52 50.87-64.29ZM657.71 630.27q52.55-.05 104.94-.04c10.68.01 19.51-.84 28.87-3.48 18.63-5.24 34.65-20.44 39.02-39.69 5.57-24.62.58-48.18-17.9-65.97-14.85-14.3-32.27-17.99-52.39-18.02q-51.23-.07-102.24-.08a.51.51 0 0 0-.51.51V628q0 .45-.18.88-.2.49-.05 1.05a.46.45 82.5 0 0 .44.34Z"/><rect width="74.28" height="77.74" x="-37.14" y="-38.87" fill="#2573ba" rx=".44" transform="rotate(-.1 167870.209 -570313.494)"/><path fill="#dbe08c" d="M414.22 414.17c-81.52 46.05-182.09 33.67-248.73-32.82q-.67-.67.24-.94c4.13-1.24 8.75-2.08 12.66-3.3 53.65-16.89 107.06-41.35 152.55-74.72q3.72-2.73 6.86-5.73a.77.77 0 0 1 1.04-.02c33.93 30.11 92.47 71.71 140.7 60.98a.43.42 10.5 0 1 .45.65c-10.41 15.52-25.54 26.28-39.83 38.64q-8.68 7.5-25.94 17.26Z"/><path fill="#2573ba" d="M1460.47 535.48c-37.54-20.88-53.79-60.04-41.91-101.42 8.25-28.75 33.41-51.32 60.64-61.85 23.86-9.23 50.72-12.03 76.12-11.29q32.5.94 57.85 6.29a1.87 1.85 41.2 0 0 1-.06l87.5-29.17a.92.92 0 0 1 1.2.73l9.63 61.09q.11.66-.55.72l-46.23 4.82q-1.38.14-.43 1.16c22.47 24.21 26.37 59.66 13.78 89.46-23.59 55.85-98.23 69.97-151.05 63.11q-18.01-2.33-36.23-6.26a1.54 1.53 37.6 0 0-1.03.13c-16.73 8.51-29.71 26.28-18.59 45.11 9.28 15.7 23.75 19.05 41.39 19.09q50.22.13 100.44.11 15.77 0 32.4 4.25c49.53 12.68 86.38 58.6 70.26 110.93-10.43 33.88-44.66 59.37-77.61 69.86-31.83 10.14-66.91 12.49-100.31 11.55-54.78-1.55-144.85-11-146.87-86.28-.86-32.3 19.2-56 47.33-68.56a.58.58 0 0 0 .13-.97c-14.91-12.12-28.54-29.33-30.63-49.05-3.61-34.14 23.47-59.59 51.72-72.31a.67.66 47.5 0 0 .05-1.19Zm70.35-124.38c-55.86 12.24-55.3 93.32 1.94 104.88 27.81 5.61 64.54.33 75.09-30.66 4.45-13.08 5.48-29.46 1-42.53-11.32-33.06-48.47-38.16-78.03-31.69Zm-64.63 326.21c17.91 17.26 39.06 23.14 63.06 25.43 26.13 2.5 54.1 2.86 79.9-2.45 24.04-4.95 45.23-18.74 39.84-46.06-3.71-18.77-30.96-25.86-47.06-25.91q-36.84-.11-73.69-.08c-19.66.02-38.55-2.89-57.35-8.04a2.13 2.12 33.2 0 0-1.88.39c-7.41 5.81-15.85 16.02-15.92 26.1q-.14 17.87 13.1 30.62Z"/><path fill="#2573ba" d="M1794.27 541.01a.45.45 0 0 0-.45.43c-.38 13.22.38 27.87 3.23 40.82 7.49 33.97 32.87 58.81 68.39 61.06 11.26.71 22.78.57 33.24-2.35 23.93-6.7 38.83-24.87 46.75-47.87a.99.98-76.9 0 1 1.05-.66l64.93 8.12a.32.32 0 0 1 .27.4q-10.85 40.19-42.99 66.47c-22.74 18.6-46.62 29.41-76.01 32.45-44.7 4.63-89.76-1.47-123.86-32.69-40.66-37.24-53.36-85.5-52.74-139.19.52-44.79 11.43-83.84 40.73-118.67 23.15-27.51 54.45-42.89 89.91-47.05 52.39-6.14 102.99 6.86 136.16 49.65 27.76 35.81 36.86 84.37 35.55 128.62q-.01.45-.45.45l-223.71.01ZM1923.86 442c-12.42-15.31-28.27-25.59-48.34-27.77-20.18-2.19-40.33 3.52-55.13 17.47-17.56 16.55-25.34 38.8-28.19 62.42q-.08.63.56.63h147.49q.49 0 .49-.5c.05-18.94-4.9-37.46-16.88-52.25ZM2126.33 444.5q4.12-8.8 8.49-17.45c23.56-46.64 61.81-72.95 115.45-61.9q29.28 6.04 49.3 25.3c25.35 24.39 31.31 60.4 31.41 94.36q.3 105.59.3 211.16a.53.53 0 0 1-.53.53h-73.49a.52.52 0 0 1-.52-.52q.04-103.47-.02-207.17-.01-9.24-2.49-19.41c-3.45-14.11-9.99-26.09-21.51-34.37-16.6-11.92-41.12-9.54-58.29.12-36.42 20.5-41.62 60.08-41.65 97.82q-.06 81.52-.02 163.01a.52.52 0 0 1-.52.52h-73.49a.5.5 0 0 1-.5-.5V369.5a.5.5 0 0 1 .5-.5h65.95q1.44 0 1.44 1.45l-.07 74q0 .6.26.05ZM1192.52 701.98c-37.86-6.52-67.47-28.37-87.46-60.59-43.98-70.87-43.2-170.24 15.78-233.54 36.96-39.68 93.32-50.81 144.42-40.12 59.63 12.48 100.36 66 111.04 123.97 13.59 73.72-6.53 148.57-71.7 190.67-32.68 21.11-73.99 26.17-112.08 19.61Zm-19.02-87.88c12.32 18.24 27.67 29.18 50.51 29.55 43.01.69 65.71-26.29 72.91-65.97q6.95-38.38 1.52-77c-4.36-31.08-18.88-67.62-53.43-75.23-27.7-6.1-59.24 2.4-73.61 28.72-15.3 28.02-19.33 60.79-17.43 92.37 1.45 24.24 5.71 47.1 19.53 67.56Z"/><rect width="74.26" height="327.5" x="958.5" y="369" fill="#2573ba" rx=".43"/><path fill="#2573ba" d="M2404.25 696.25c-20.57 9.07-43.58-15.95-27.82-36.1 12.74-16.27 37.14-11.88 41.78 9.02 2.59 11.68-3.16 22.31-13.96 27.08Zm11.41-22.84a19.8 19.8 0 0 0-19.8-19.8 19.8 19.8 0 0 0-19.8 19.8 19.8 19.8 0 0 0 19.8 19.8 19.8 19.8 0 0 0 19.8-19.8Z"/><path fill="#2573ba" d="m2402.48 675.56 4.48 10.27q.26.59-.36.78c-2.41.76-4.1.37-5.3-2.02q-1.86-3.69-3.68-7.36-.21-.42-.68-.45l-5.53-.33a.69.69 0 0 0-.73.7l.1 8.65a.8.79-89 0 1-.83.81l-3.62-.16a.61.61 0 0 1-.58-.61v-25.07a.6.59-89.1 0 1 .61-.6c6.04.18 17.54-2.04 20.4 5.36 1.33 3.42.12 8.36-3.96 9.38a.48.48 0 0 0-.32.65Zm-13.47-9.68-.02 5.22a.68.68 0 0 0 .68.68l6.46.02a4.54 3.23.2 0 0 4.55-3.21v-.12a4.54 3.23.2 0 0-4.53-3.25l-6.46-.02a.68.68 0 0 0-.68.68Z"/></svg>