<?xml version="1.0" encoding="UTF-8"?>
<!DOCTYPE svg PUBLIC "-//W3C//DTD SVG 1.1//EN" "http://www.w3.org/Graphics/SVG/1.1/DTD/svg11.dtd">
<svg xmlns="http://www.w3.org/2000/svg" version="1.1" width="583px" height="499px" style="shape-rendering:geometricPrecision; text-rendering:geometricPrecision; image-rendering:optimizeQuality; fill-rule:evenodd; clip-rule:evenodd" xmlns:xlink="http://www.w3.org/1999/xlink">
<g><path style="opacity:1" fill="#fffefe" d="M -0.5,-0.5 C 193.833,-0.5 388.167,-0.5 582.5,-0.5C 582.5,165.833 582.5,332.167 582.5,498.5C 388.167,498.5 193.833,498.5 -0.5,498.5C -0.5,332.167 -0.5,165.833 -0.5,-0.5 Z"/></g>
<g><path style="opacity:1" fill="#ffba20" d="M 361.5,46.5 C 361.414,47.4959 361.748,48.3292 362.5,49C 370.209,49.6736 377.875,50.6736 385.5,52C 412.381,59.1815 439.048,67.1815 465.5,76C 479.393,83.91 492.727,92.5766 505.5,102C 509.049,106.26 512.716,110.427 516.5,114.5C 517.325,115.386 518.325,115.719 519.5,115.5C 527.072,133.396 529.905,152.063 528,171.5C 526.124,194.783 520.624,217.117 511.5,238.5C 510.903,238.265 510.57,237.765 510.5,237C 515.951,211.076 515.451,185.243 509,159.5C 504.867,152.767 502.534,145.433 502,137.5C 499.333,131.5 496.667,125.5 494,119.5C 486.5,111.333 479,103.167 471.5,95C 466.997,91.2454 461.997,88.2454 456.5,86C 444.184,80.8394 431.517,76.8394 418.5,74C 411.642,69.9065 404.309,66.9065 396.5,65C 377.634,61.257 358.634,58.257 339.5,56C 336.283,54.3631 332.95,53.0298 329.5,52C 323.699,51.7262 318.032,50.7262 312.5,49C 307.177,48.5006 301.844,48.334 296.5,48.5C 317.808,46.511 339.474,45.8443 361.5,46.5 Z"/></g>
<g><path style="opacity:1" fill="#ffd860" d="M 361.5,46.5 C 396.31,46.057 429.976,51.8903 462.5,64C 488.008,74.0096 507.008,91.1762 519.5,115.5C 518.325,115.719 517.325,115.386 516.5,114.5C 512.716,110.427 509.049,106.26 505.5,102C 492.727,92.5766 479.393,83.91 465.5,76C 439.048,67.1815 412.381,59.1815 385.5,52C 377.875,50.6736 370.209,49.6736 362.5,49C 361.748,48.3292 361.414,47.4959 361.5,46.5 Z"/></g>
<g><path style="opacity:1" fill="#ff9c05" d="M 296.5,48.5 C 301.844,48.334 307.177,48.5006 312.5,49C 318.032,50.7262 323.699,51.7262 329.5,52C 332.95,53.0298 336.283,54.3631 339.5,56C 358.634,58.257 377.634,61.257 396.5,65C 404.309,66.9065 411.642,69.9065 418.5,74C 431.517,76.8394 444.184,80.8394 456.5,86C 461.997,88.2454 466.997,91.2454 471.5,95C 479,103.167 486.5,111.333 494,119.5C 496.667,125.5 499.333,131.5 502,137.5C 502.534,145.433 504.867,152.767 509,159.5C 515.451,185.243 515.951,211.076 510.5,237C 510.57,237.765 510.903,238.265 511.5,238.5C 499.097,268.509 483.43,296.509 464.5,322.5C 467.196,310.569 469.696,298.569 472,286.5C 472.667,285.167 473.333,283.833 474,282.5C 477.333,281.833 479.333,279.833 480,276.5C 482.448,262.941 483.115,249.274 482,235.5C 478.178,232.108 476.512,227.775 477,222.5C 475.803,219.911 474.803,217.244 474,214.5C 473.311,213.643 472.478,212.977 471.5,212.5C 470.767,208.826 470.101,205.159 469.5,201.5C 464.569,199.609 462.069,195.942 462,190.5C 455.199,186.869 450.365,181.536 447.5,174.5C 448.043,174.44 448.376,174.107 448.5,173.5C 447.311,172.571 445.978,172.238 444.5,172.5C 440.561,168.386 436.727,164.053 433,159.5C 424.413,144.655 415.08,130.321 405,116.5C 397.183,110.052 389.683,103.218 382.5,96C 374.5,91 366.5,86 358.5,81C 351.828,77.221 344.828,74.221 337.5,72C 337.507,70.4173 337.174,68.7506 336.5,67C 328.588,64.8428 320.588,64.1761 312.5,65C 301.741,59.635 290.408,56.3017 278.5,55C 273.984,53.4823 269.651,51.9823 265.5,50.5C 275.827,49.7508 286.161,49.0841 296.5,48.5 Z"/></g>
<g><path style="opacity:1" fill="#ff880e" d="M 265.5,50.5 C 269.651,51.9823 273.984,53.4823 278.5,55C 290.408,56.3017 301.741,59.635 312.5,65C 320.588,64.1761 328.588,64.8428 336.5,67C 337.174,68.7506 337.507,70.4173 337.5,72C 344.828,74.221 351.828,77.221 358.5,81C 366.5,86 374.5,91 382.5,96C 389.683,103.218 397.183,110.052 405,116.5C 415.08,130.321 424.413,144.655 433,159.5C 436.727,164.053 440.561,168.386 444.5,172.5C 434.985,172.173 425.652,172.506 416.5,173.5C 398.861,191.304 380.694,208.637 362,225.5C 361.833,187.162 361.333,148.829 360.5,110.5C 351.056,112.86 341.723,115.527 332.5,118.5C 334.958,124.237 336.458,130.237 337,136.5C 337.832,188.002 337.665,239.335 336.5,290.5C 336.833,250.161 336.5,209.828 335.5,169.5C 333.683,167.584 332.516,165.251 332,162.5C 329.695,153.948 328.028,145.282 327,136.5C 324.527,131.08 322.86,125.414 322,119.5C 318.828,115.159 316.161,110.492 314,105.5C 293.248,85.7019 268.748,72.5352 240.5,66C 225.117,64.5878 209.783,64.0878 194.5,64.5C 217.763,58.3612 241.43,53.6946 265.5,50.5 Z"/></g>
<g><path style="opacity:1" fill="#ff7409" d="M 194.5,64.5 C 209.783,64.0878 225.117,64.5878 240.5,66C 268.748,72.5352 293.248,85.7019 314,105.5C 316.161,110.492 318.828,115.159 322,119.5C 322.86,125.414 324.527,131.08 327,136.5C 328.028,145.282 329.695,153.948 332,162.5C 332.516,165.251 333.683,167.584 335.5,169.5C 336.5,209.828 336.833,250.161 336.5,290.5C 335.992,294.197 335.326,297.864 334.5,301.5C 333.596,302.209 333.263,303.209 333.5,304.5C 344.187,304.832 354.854,304.499 365.5,303.5C 365.376,302.893 365.043,302.56 364.5,302.5C 362.456,280.901 361.956,259.235 363,237.5C 379.42,257.924 396.586,277.757 414.5,297C 418.36,299.761 422.36,302.261 426.5,304.5C 428.322,307.107 427.822,309.107 425,310.5C 423.811,314.709 424.644,318.376 427.5,321.5C 425.994,323.655 424.994,325.988 424.5,328.5C 427.105,340.268 427.105,352.101 424.5,364C 424.725,366.528 425.058,369.028 425.5,371.5C 418.285,379.926 410.619,387.926 402.5,395.5C 401.928,394.027 401.095,392.693 400,391.5C 400.291,382.125 400.458,372.792 400.5,363.5C 400.167,361.5 399.833,359.5 399.5,357.5C 397.209,356.104 396.875,354.271 398.5,352C 397.932,348.749 397.098,345.583 396,342.5C 388.267,340.974 380.434,339.808 372.5,339C 363.991,335.072 355.324,331.738 346.5,329C 339.89,325.111 333.723,320.611 328,315.5C 325.219,310.141 323.052,304.641 321.5,299C 319.246,298.376 317.579,297.043 316.5,295C 314.803,294.616 313.137,294.782 311.5,295.5C 327.074,277.452 326.074,260.286 308.5,244C 306.167,242.333 303.833,240.667 301.5,239C 287.846,232.174 274.512,224.841 261.5,217C 250.909,208.418 249.909,199.084 258.5,189C 277.812,181.544 295.812,184.044 312.5,196.5C 313.81,189.944 313.81,183.444 312.5,177C 302.699,172.233 292.366,169.4 281.5,168.5C 282.428,153.141 282.595,137.808 282,122.5C 280.503,118.835 278.503,115.502 276,112.5C 270.5,108.333 265,104.167 259.5,100C 255.907,97.5416 251.907,96.2083 247.5,96C 245.792,93.9565 243.792,92.2899 241.5,91C 223.151,85.1852 204.317,82.6852 185,83.5C 172.29,83.3972 159.624,84.0638 147,85.5C 144.319,85.2306 141.819,84.5639 139.5,83.5C 157.114,75.4053 175.447,69.072 194.5,64.5 Z"/></g>
<g><path style="opacity:1" fill="#ff6709" d="M 139.5,83.5 C 141.819,84.5639 144.319,85.2306 147,85.5C 159.624,84.0638 172.29,83.3972 185,83.5C 204.317,82.6852 223.151,85.1852 241.5,91C 243.792,92.2899 245.792,93.9565 247.5,96C 251.907,96.2083 255.907,97.5416 259.5,100C 265,104.167 270.5,108.333 276,112.5C 278.503,115.502 280.503,118.835 282,122.5C 282.595,137.808 282.428,153.141 281.5,168.5C 263.698,167.375 248.532,173.042 236,185.5C 223.796,204.597 226.629,221.097 244.5,235C 257.721,243.111 271.388,250.445 285.5,257C 296.404,263.542 299.57,272.708 295,284.5C 292.01,287.491 288.51,289.657 284.5,291C 264.59,294.252 245.924,290.752 228.5,280.5C 227.167,287.167 227.167,293.833 228.5,300.5C 251.119,309.677 274.119,310.843 297.5,304C 302.694,301.909 307.361,299.076 311.5,295.5C 313.137,294.782 314.803,294.616 316.5,295C 317.579,297.043 319.246,298.376 321.5,299C 323.052,304.641 325.219,310.141 328,315.5C 333.723,320.611 339.89,325.111 346.5,329C 355.324,331.738 363.991,335.072 372.5,339C 380.434,339.808 388.267,340.974 396,342.5C 397.098,345.583 397.932,348.749 398.5,352C 396.875,354.271 397.209,356.104 399.5,357.5C 399.833,359.5 400.167,361.5 400.5,363.5C 400.458,372.792 400.291,382.125 400,391.5C 401.095,392.693 401.928,394.027 402.5,395.5C 394.16,403.84 385.493,411.84 376.5,419.5C 376.662,417.473 376.495,415.473 376,413.5C 371.217,410.936 368.717,406.936 368.5,401.5C 366.801,401.66 365.134,401.494 363.5,401C 361.623,398.894 359.29,397.561 356.5,397C 349.104,397.049 341.937,395.882 335,393.5C 333.211,394.409 331.377,394.576 329.5,394C 324.119,387.143 317.119,383.143 308.5,382C 305.167,380 301.833,378 298.5,376C 296.875,372.58 294.875,369.413 292.5,366.5C 287.447,362.939 282.28,359.606 277,356.5C 274.667,353.5 272.333,350.5 270,347.5C 269.78,343.081 268.28,339.247 265.5,336C 263.414,335.443 262.081,336.276 261.5,338.5C 263.76,340.407 263.927,342.407 262,344.5C 258.236,339.309 255.236,333.642 253,327.5C 244.462,320.629 236.962,312.796 230.5,304C 225.983,301.907 221.983,299.074 218.5,295.5C 215.928,291.438 213.595,287.271 211.5,283C 201.288,278.051 192.288,271.385 184.5,263C 181.444,261.144 178.444,259.311 175.5,257.5C 197.808,247.22 206.641,229.886 202,205.5C 200.042,199.544 197.209,194.044 193.5,189C 201.497,188.832 209.497,188.999 217.5,189.5C 218.489,184.025 218.822,178.358 218.5,172.5C 217.209,172.263 216.209,172.596 215.5,173.5C 206.895,175.091 198.228,175.591 189.5,175C 175.959,172.031 162.292,169.865 148.5,168.5C 129.802,168.767 114.636,176.1 103,190.5C 97.7428,199.103 95.2428,208.437 95.5,218.5C 92.5896,217.331 91.923,215.331 93.5,212.5C 92.4438,209.264 90.9438,206.264 89,203.5C 88.3076,204.025 87.8076,204.692 87.5,205.5C 88.4279,206.768 88.5946,208.101 88,209.5C 79.835,187.439 72.0016,165.439 64.5,143.5C 84.1336,116.874 109.134,96.8741 139.5,83.5 Z"/></g>
<g><path style="opacity:1" fill="#fffdfc" d="M 416.5,173.5 C 427.014,173.172 437.347,173.506 447.5,174.5C 439.173,178.981 431.506,184.481 424.5,191C 410.797,203.704 397.463,216.704 384.5,230C 400.739,250.246 417.739,269.912 435.5,289C 443.397,296.28 452.73,300.28 463.5,301C 451.565,306.75 439.231,307.917 426.5,304.5C 422.36,302.261 418.36,299.761 414.5,297C 396.586,277.757 379.42,257.924 363,237.5C 361.956,259.235 362.456,280.901 364.5,302.5C 359.678,303.166 354.678,303.499 349.5,303.5C 344.119,303.494 339.119,302.828 334.5,301.5C 335.326,297.864 335.992,294.197 336.5,290.5C 337.665,239.335 337.832,188.002 337,136.5C 336.458,130.237 334.958,124.237 332.5,118.5C 341.723,115.527 351.056,112.86 360.5,110.5C 361.333,148.829 361.833,187.162 362,225.5C 380.694,208.637 398.861,191.304 416.5,173.5 Z"/></g>
<g><path style="opacity:1" fill="#fb5809" d="M 64.5,143.5 C 72.0016,165.439 79.835,187.439 88,209.5C 88.5946,208.101 88.4279,206.768 87.5,205.5C 87.8076,204.692 88.3076,204.025 89,203.5C 90.9438,206.264 92.4438,209.264 93.5,212.5C 91.923,215.331 92.5896,217.331 95.5,218.5C 98.1015,236.194 107.435,249.027 123.5,257C 118.328,260.35 113.662,264.183 109.5,268.5C 100.284,256.765 90.7835,245.099 81,233.5C 74.3333,218.833 67.6667,204.167 61,189.5C 60.6667,184.167 60.3333,178.833 60,173.5C 58.4945,168.371 56.9945,163.371 55.5,158.5C 56.1495,156.565 56.4828,154.565 56.5,152.5C 57.8221,152.67 58.9887,152.337 60,151.5C 61.3277,148.688 62.8277,146.022 64.5,143.5 Z"/></g>
<g><path style="opacity:1" fill="#f44006" d="M 55.5,158.5 C 56.9945,163.371 58.4945,168.371 60,173.5C 60.3333,178.833 60.6667,184.167 61,189.5C 67.6667,204.167 74.3333,218.833 81,233.5C 90.7835,245.099 100.284,256.765 109.5,268.5C 101.301,285.95 106.301,298.116 124.5,305C 117.66,308.25 111.327,312.25 105.5,317C 93.0007,329.688 93.6674,341.688 107.5,353C 124.167,362.891 142.167,366.558 161.5,364C 181.055,363.102 198.055,356.269 212.5,343.5C 214.984,347.803 218.651,350.97 223.5,353C 228.624,359.13 234.624,364.13 241.5,368C 245.104,372.955 249.771,376.288 255.5,378C 258.221,381.211 261.221,384.211 264.5,387C 279.897,396.53 296.23,404.197 313.5,410C 329.552,413.172 345.552,416.505 361.5,420C 364.409,421.406 366.409,423.572 367.5,426.5C 306.492,472.302 242.492,476.469 175.5,439C 141.18,418.015 112.68,390.848 90,357.5C 69.7415,328.976 55.4082,297.643 47,263.5C 37.6929,227.448 40.5262,192.448 55.5,158.5 Z"/></g>
<g><path style="opacity:1" fill="#fffcfb" d="M 215.5,173.5 C 217.446,178.396 218.113,183.729 217.5,189.5C 209.497,188.999 201.497,188.832 193.5,189C 197.209,194.044 200.042,199.544 202,205.5C 206.641,229.886 197.808,247.22 175.5,257.5C 163.057,260.638 150.391,262.138 137.5,262C 134.217,263.561 131.383,265.727 129,268.5C 125.403,278.941 129.236,284.774 140.5,286C 157.909,286.86 175.243,288.527 192.5,291C 212.778,294.929 221.945,307.096 220,327.5C 217.745,333.006 215.245,338.34 212.5,343.5C 198.055,356.269 181.055,363.102 161.5,364C 142.167,366.558 124.167,362.891 107.5,353C 93.6674,341.688 93.0007,329.688 105.5,317C 111.327,312.25 117.66,308.25 124.5,305C 106.301,298.116 101.301,285.95 109.5,268.5C 113.662,264.183 118.328,260.35 123.5,257C 107.435,249.027 98.1015,236.194 95.5,218.5C 95.2428,208.437 97.7428,199.103 103,190.5C 114.636,176.1 129.802,168.767 148.5,168.5C 162.292,169.865 175.959,172.031 189.5,175C 198.228,175.591 206.895,175.091 215.5,173.5 Z"/></g>
<g><path style="opacity:1" fill="#fffcfb" d="M 281.5,168.5 C 292.366,169.4 302.699,172.233 312.5,177C 313.81,183.444 313.81,189.944 312.5,196.5C 295.812,184.044 277.812,181.544 258.5,189C 249.909,199.084 250.909,208.418 261.5,217C 274.512,224.841 287.846,232.174 301.5,239C 303.833,240.667 306.167,242.333 308.5,244C 326.074,260.286 327.074,277.452 311.5,295.5C 307.361,299.076 302.694,301.909 297.5,304C 274.119,310.843 251.119,309.677 228.5,300.5C 227.167,293.833 227.167,287.167 228.5,280.5C 245.924,290.752 264.59,294.252 284.5,291C 288.51,289.657 292.01,287.491 295,284.5C 299.57,272.708 296.404,263.542 285.5,257C 271.388,250.445 257.721,243.111 244.5,235C 226.629,221.097 223.796,204.597 236,185.5C 248.532,173.042 263.698,167.375 281.5,168.5 Z"/></g>
<g><path style="opacity:1" fill="#ffb15c" d="M 416.5,173.5 C 425.652,172.506 434.985,172.173 444.5,172.5C 445.978,172.238 447.311,172.571 448.5,173.5C 448.376,174.107 448.043,174.44 447.5,174.5C 437.347,173.506 427.014,173.172 416.5,173.5 Z"/></g>
<g><path style="opacity:1" fill="#ffd1b3" d="M 215.5,173.5 C 216.209,172.596 217.209,172.263 218.5,172.5C 218.822,178.358 218.489,184.025 217.5,189.5C 218.113,183.729 217.446,178.396 215.5,173.5 Z"/></g>
<g><path style="opacity:1" fill="#ff8708" d="M 447.5,174.5 C 450.365,181.536 455.199,186.869 462,190.5C 462.069,195.942 464.569,199.609 469.5,201.5C 470.101,205.159 470.767,208.826 471.5,212.5C 472.478,212.977 473.311,213.643 474,214.5C 474.803,217.244 475.803,219.911 477,222.5C 476.512,227.775 478.178,232.108 482,235.5C 483.115,249.274 482.448,262.941 480,276.5C 479.333,279.833 477.333,281.833 474,282.5C 473.333,283.833 472.667,285.167 472,286.5C 469.696,298.569 467.196,310.569 464.5,322.5C 452.7,339.753 439.7,356.087 425.5,371.5C 425.058,369.028 424.725,366.528 424.5,364C 427.105,352.101 427.105,340.268 424.5,328.5C 424.994,325.988 425.994,323.655 427.5,321.5C 424.644,318.376 423.811,314.709 425,310.5C 427.822,309.107 428.322,307.107 426.5,304.5C 439.231,307.917 451.565,306.75 463.5,301C 452.73,300.28 443.397,296.28 435.5,289C 417.739,269.912 400.739,250.246 384.5,230C 397.463,216.704 410.797,203.704 424.5,191C 431.506,184.481 439.173,178.981 447.5,174.5 Z"/></g>
<g><path style="opacity:1" fill="#ff680c" d="M 142.5,182.5 C 165.774,182.272 178.44,193.772 180.5,217C 178.932,238.908 167.265,248.908 145.5,247C 127.492,242.193 118.825,230.359 119.5,211.5C 120.181,196.165 127.848,186.498 142.5,182.5 Z"/></g>
<g><path style="opacity:1" fill="#fb5808" d="M 175.5,257.5 C 178.444,259.311 181.444,261.144 184.5,263C 192.288,271.385 201.288,278.051 211.5,283C 213.595,287.271 215.928,291.438 218.5,295.5C 221.983,299.074 225.983,301.907 230.5,304C 236.962,312.796 244.462,320.629 253,327.5C 255.236,333.642 258.236,339.309 262,344.5C 263.927,342.407 263.76,340.407 261.5,338.5C 262.081,336.276 263.414,335.443 265.5,336C 268.28,339.247 269.78,343.081 270,347.5C 272.333,350.5 274.667,353.5 277,356.5C 282.28,359.606 287.447,362.939 292.5,366.5C 294.875,369.413 296.875,372.58 298.5,376C 301.833,378 305.167,380 308.5,382C 317.119,383.143 324.119,387.143 329.5,394C 331.377,394.576 333.211,394.409 335,393.5C 341.937,395.882 349.104,397.049 356.5,397C 359.29,397.561 361.623,398.894 363.5,401C 365.134,401.494 366.801,401.66 368.5,401.5C 368.717,406.936 371.217,410.936 376,413.5C 376.495,415.473 376.662,417.473 376.5,419.5C 373.319,421.592 370.319,423.925 367.5,426.5C 366.409,423.572 364.409,421.406 361.5,420C 345.552,416.505 329.552,413.172 313.5,410C 296.23,404.197 279.897,396.53 264.5,387C 261.221,384.211 258.221,381.211 255.5,378C 249.771,376.288 245.104,372.955 241.5,368C 234.624,364.13 228.624,359.13 223.5,353C 218.651,350.97 214.984,347.803 212.5,343.5C 215.245,338.34 217.745,333.006 220,327.5C 221.945,307.096 212.778,294.929 192.5,291C 175.243,288.527 157.909,286.86 140.5,286C 129.236,284.774 125.403,278.941 129,268.5C 131.383,265.727 134.217,263.561 137.5,262C 150.391,262.138 163.057,260.638 175.5,257.5 Z"/></g>
<g><path style="opacity:1" fill="#ffc89f" d="M 334.5,301.5 C 339.119,302.828 344.119,303.494 349.5,303.5C 354.678,303.499 359.678,303.166 364.5,302.5C 365.043,302.56 365.376,302.893 365.5,303.5C 354.854,304.499 344.187,304.832 333.5,304.5C 333.263,303.209 333.596,302.209 334.5,301.5 Z"/></g>
<g><path style="opacity:1" fill="#f44209" d="M 135.5,306.5 C 154.429,306.599 173.096,308.766 191.5,313C 204.968,320.951 205.968,330.284 194.5,341C 172.26,352.604 150.26,352.27 128.5,340C 120.247,334.021 118.414,326.521 123,317.5C 126.767,313.224 130.934,309.557 135.5,306.5 Z"/></g>
</svg>
