<?xml version="1.0" encoding="UTF-8"?>
<!DOCTYPE svg PUBLIC "-//W3C//DTD SVG 1.1//EN" "http://www.w3.org/Graphics/SVG/1.1/DTD/svg11.dtd">
<svg xmlns="http://www.w3.org/2000/svg" version="1.1" width="2400px" height="636px" style="shape-rendering:geometricPrecision; text-rendering:geometricPrecision; image-rendering:optimizeQuality; fill-rule:evenodd; clip-rule:evenodd" xmlns:xlink="http://www.w3.org/1999/xlink">
<g><path style="opacity:0.974" fill="#e40018" d="M 819.5,65.5 C 832.591,63.9106 843.091,68.2439 851,78.5C 894.97,147.301 939.136,215.968 983.5,284.5C 966.5,285.833 949.5,285.833 932.5,284.5C 925.167,272.5 917.833,260.5 910.5,248.5C 872.838,247.667 835.171,247.167 797.5,247C 789.415,234.162 781.082,221.495 772.5,209C 809.5,208.667 846.5,208.333 883.5,208C 864.292,177.082 844.958,146.249 825.5,115.5C 790,171.833 754.5,228.167 719,284.5C 702.231,285.824 685.397,285.824 668.5,284.5C 712.417,214.997 756.584,145.664 801,76.5C 806.101,70.8729 812.267,67.2062 819.5,65.5 Z"/></g>
<g><path style="opacity:0.976" fill="#e40018" d="M 149.5,67.5 C 199.189,67.0481 248.855,67.5481 298.5,69C 341.921,77.1226 371.088,101.956 386,143.5C 399.336,197.523 383.169,240.023 337.5,271C 324.15,278.672 309.816,283.339 294.5,285C 244.167,285.667 193.833,285.667 143.5,285C 89.9101,276.077 58.0768,244.91 48,191.5C 43.5627,143.878 61.396,107.378 101.5,82C 116.622,73.7887 132.622,68.9553 149.5,67.5 Z M 145.5,107.5 C 194.168,107.333 242.834,107.5 291.5,108C 324.115,114.949 343.615,134.782 350,167.5C 352.258,201.559 338.092,226.059 307.5,241C 301.066,243.609 294.399,245.275 287.5,246C 241.5,246.667 195.5,246.667 149.5,246C 115.142,240.976 94.3086,221.476 87,187.5C 84.8543,144.835 104.354,118.168 145.5,107.5 Z"/></g>
<g><path style="opacity:0.978" fill="#e40018" d="M 410.5,67.5 C 476.501,67.3333 542.501,67.5 608.5,68C 643.455,74.2889 664.622,94.7889 672,129.5C 675.501,165.674 661.335,192.174 629.5,209C 624.36,211.269 619.027,212.935 613.5,214C 601.199,215.148 588.866,215.815 576.5,216C 604.352,239.096 632.019,262.429 659.5,286C 638.5,286.667 617.5,286.667 596.5,286C 555.167,250 513.833,214 472.5,178C 511.833,177.667 551.167,177.333 590.5,177C 614.938,170.619 624.438,155.119 619,130.5C 613.612,117.777 604.112,110.277 590.5,108C 544.835,107.5 499.168,107.333 453.5,107.5C 453.5,166.833 453.5,226.167 453.5,285.5C 439.167,285.5 424.833,285.5 410.5,285.5C 410.5,212.833 410.5,140.167 410.5,67.5 Z"/></g>
<g><path style="opacity:0.974" fill="#e40018" d="M 1063.5,67.5 C 1116.17,67.1667 1168.84,67.5001 1221.5,68.5C 1212.96,81.7523 1204.29,94.919 1195.5,108C 1151.5,108.333 1107.5,108.667 1063.5,109C 1029.98,116.188 1010.48,136.688 1005,170.5C 1003.39,203.799 1017.56,227.632 1047.5,242C 1054.26,244.685 1061.26,246.351 1068.5,247C 1120.17,247.333 1171.83,247.667 1223.5,248C 1215.7,260.634 1207.7,273.134 1199.5,285.5C 1152.5,286.598 1105.5,286.432 1058.5,285C 1004.91,276.077 973.077,244.91 963,191.5C 958.804,148.046 973.971,113.212 1008.5,87C 1025.34,76.0006 1043.67,69.5006 1063.5,67.5 Z"/></g>
<g><path style="opacity:0.987" fill="#e40018" d="M 1241.5,67.5 C 1255.5,67.5 1269.5,67.5 1283.5,67.5C 1283.5,127.167 1283.5,186.833 1283.5,246.5C 1348.5,246.333 1413.5,246.5 1478.5,247C 1470.42,259.838 1462.08,272.505 1453.5,285C 1388.5,285.667 1323.5,285.667 1258.5,285C 1250.11,282.941 1244.61,277.775 1242,269.5C 1241.5,202.167 1241.33,134.834 1241.5,67.5 Z"/></g>
<g><path style="opacity:0.981" fill="#e40018" d="M 1568.5,67.5 C 1621.83,67.5 1675.17,67.5 1728.5,67.5C 1721.38,80.3995 1713.71,93.0661 1705.5,105.5C 1663.5,106.333 1621.5,106.833 1579.5,107C 1547.11,109.72 1525.45,126.387 1514.5,157C 1581.84,157.167 1649.17,157.667 1716.5,158.5C 1708.3,170.866 1700.3,183.366 1692.5,196C 1633.16,196.167 1573.83,196.667 1514.5,197.5C 1523.76,222.586 1541.43,238.42 1567.5,245C 1622.47,246.304 1677.47,246.97 1732.5,247C 1724.42,259.838 1716.08,272.505 1707.5,285C 1660.83,285.667 1614.17,285.667 1567.5,285C 1522.17,278.664 1491.34,254.164 1475,211.5C 1461.77,163.197 1473.94,122.697 1511.5,90C 1528.59,77.4747 1547.59,69.9747 1568.5,67.5 Z"/></g>
<g><path style="opacity:0.96" fill="#000000" d="M 121.5,372.5 C 144.953,369.485 166.286,374.652 185.5,388C 197.998,398.489 206.331,411.655 210.5,427.5C 202.294,430.209 193.961,432.543 185.5,434.5C 173.44,401.3 150.107,388.8 115.5,397C 98.312,402.188 86.1453,413.021 79,429.5C 68.3809,460.059 69.7142,490.059 83,519.5C 98.5474,541.682 119.714,550.182 146.5,545C 169.864,538.131 183.531,522.631 187.5,498.5C 196.167,500.5 204.833,502.5 213.5,504.5C 203.738,546.258 177.405,567.925 134.5,569.5C 94.5785,570.364 67.4119,552.364 53,515.5C 43.8141,487.031 43.1474,458.365 51,429.5C 63.3311,396.667 86.8311,377.667 121.5,372.5 Z"/></g>
<g><path style="opacity:0.951" fill="#000000" d="M 1067.5,372.5 C 1078.6,372.05 1089.6,372.717 1100.5,374.5C 1100.83,375.333 1101.17,376.167 1101.5,377C 1100.3,383.146 1099.3,389.313 1098.5,395.5C 1089.34,393.678 1080.34,394.178 1071.5,397C 1068.25,399.342 1066.41,402.509 1066,406.5C 1065.5,413.492 1065.33,420.492 1065.5,427.5C 1074.17,427.5 1082.83,427.5 1091.5,427.5C 1091.5,433.833 1091.5,440.167 1091.5,446.5C 1082.83,446.5 1074.17,446.5 1065.5,446.5C 1065.5,486.167 1065.5,525.833 1065.5,565.5C 1057.17,565.5 1048.83,565.5 1040.5,565.5C 1040.5,525.833 1040.5,486.167 1040.5,446.5C 1033.83,446.5 1027.17,446.5 1020.5,446.5C 1020.5,440.167 1020.5,433.833 1020.5,427.5C 1027.17,427.5 1033.83,427.5 1040.5,427.5C 1039.85,414.969 1041.02,402.636 1044,390.5C 1049.13,380.864 1056.96,374.864 1067.5,372.5 Z"/></g>
<g><path style="opacity:0.978" fill="#000000" d="M 240.5,375.5 C 248.5,375.5 256.5,375.5 264.5,375.5C 264.5,438.833 264.5,502.167 264.5,565.5C 256.5,565.5 248.5,565.5 240.5,565.5C 240.5,502.167 240.5,438.833 240.5,375.5 Z"/></g>
<g><path style="opacity:0.954" fill="#000000" d="M 680.5,375.5 C 688.833,375.5 697.167,375.5 705.5,375.5C 705.5,438.833 705.5,502.167 705.5,565.5C 697.833,565.5 690.167,565.5 682.5,565.5C 682.666,560.489 682.499,555.489 682,550.5C 675.585,559.902 666.751,565.735 655.5,568C 615.41,570.261 592.243,551.428 586,511.5C 582.414,487.324 587.08,464.991 600,444.5C 619.655,424.029 642.488,419.529 668.5,431C 672.7,434.169 676.533,437.669 680,441.5C 680.5,419.503 680.667,397.503 680.5,375.5 Z M 643.5,444.5 C 662.159,445.321 674.325,454.654 680,472.5C 684.12,488.091 684.454,503.758 681,519.5C 672.404,545.05 655.57,553.217 630.5,544C 618.996,535.834 612.496,524.668 611,510.5C 610.333,501.167 610.333,491.833 611,482.5C 612.812,461.758 623.645,449.092 643.5,444.5 Z"/></g>
<g><path style="opacity:0.97" fill="#000000" d="M 821.5,375.5 C 830.167,375.5 838.833,375.5 847.5,375.5C 847.5,438.833 847.5,502.167 847.5,565.5C 838.833,565.5 830.167,565.5 821.5,565.5C 821.5,502.167 821.5,438.833 821.5,375.5 Z"/></g>
<g><path style="opacity:0.969" fill="#000000" d="M 1503.5,379.5 C 1504.5,395.325 1504.83,411.325 1504.5,427.5C 1512.5,427.5 1520.5,427.5 1528.5,427.5C 1528.5,433.833 1528.5,440.167 1528.5,446.5C 1520.5,446.5 1512.5,446.5 1504.5,446.5C 1504.05,477.203 1504.55,507.87 1506,538.5C 1507.17,541 1509,542.833 1511.5,544C 1517.2,544.17 1522.86,544.67 1528.5,545.5C 1529.64,551.294 1530.64,557.127 1531.5,563C 1531.25,564.326 1530.58,565.326 1529.5,566C 1517.29,568.523 1505.29,567.856 1493.5,564C 1484.45,558.403 1480.28,550.237 1481,539.5C 1480.5,508.502 1480.33,477.502 1480.5,446.5C 1474.83,446.5 1469.17,446.5 1463.5,446.5C 1463.5,440.167 1463.5,433.833 1463.5,427.5C 1469.17,427.5 1474.83,427.5 1480.5,427.5C 1480.33,416.162 1480.5,404.828 1481,393.5C 1488.65,388.934 1496.15,384.267 1503.5,379.5 Z"/></g>
<g><path style="opacity:0.947" fill="#000000" d="M 1944.5,379.5 C 1946.48,395.132 1947.15,411.132 1946.5,427.5C 1954.17,427.5 1961.83,427.5 1969.5,427.5C 1969.5,433.833 1969.5,440.167 1969.5,446.5C 1961.83,446.5 1954.17,446.5 1946.5,446.5C 1946.33,476.835 1946.5,507.168 1947,537.5C 1947.83,541 1950,543.167 1953.5,544C 1958.83,544.333 1964.17,544.667 1969.5,545C 1970.87,550.56 1971.87,556.226 1972.5,562C 1972.32,563.658 1971.66,564.991 1970.5,566C 1960.49,567.966 1950.49,567.966 1940.5,566C 1932.5,563.997 1927,559.164 1924,551.5C 1922.95,545.883 1922.28,540.216 1922,534.5C 1921.5,505.169 1921.33,475.835 1921.5,446.5C 1915.83,446.5 1910.17,446.5 1904.5,446.5C 1904.5,440.167 1904.5,433.833 1904.5,427.5C 1910.17,427.5 1915.83,427.5 1921.5,427.5C 1921.33,416.162 1921.5,404.828 1922,393.5C 1929.65,388.934 1937.15,384.267 1944.5,379.5 Z"/></g>
<g><path style="opacity:0.96" fill="#000000" d="M 347.5,424.5 C 395.122,424.121 419.455,447.788 420.5,495.5C 421.011,511.785 417.511,527.118 410,541.5C 391.414,565.033 367.247,573.533 337.5,567C 311.81,559.301 296.643,542.134 292,515.5C 289.19,497.503 290.523,479.836 296,462.5C 305.976,440.016 323.143,427.35 347.5,424.5 Z M 352.5,444.5 C 372.045,444.854 385.212,454.188 392,472.5C 398.354,494.237 396.021,514.903 385,534.5C 369.254,550.566 351.754,552.733 332.5,541C 320.269,528.827 314.603,513.993 315.5,496.5C 315.222,484.055 318.055,472.388 324,461.5C 331.18,451.831 340.68,446.164 352.5,444.5 Z"/></g>
<g><path style="opacity:0.971" fill="#000000" d="M 945.5,424.5 C 958.553,423.564 970.886,426.064 982.5,432C 993.392,439.612 999.226,450.112 1000,463.5C 1000.5,497.498 1000.67,531.498 1000.5,565.5C 992.5,565.5 984.5,565.5 976.5,565.5C 976.949,532.468 976.449,499.468 975,466.5C 971.319,452.833 962.319,445.833 948,445.5C 926.79,447.043 915.124,458.377 913,479.5C 912.5,508.165 912.333,536.831 912.5,565.5C 904.5,565.5 896.5,565.5 888.5,565.5C 888.5,519.5 888.5,473.5 888.5,427.5C 895.833,427.5 903.167,427.5 910.5,427.5C 910.334,433.176 910.501,438.843 911,444.5C 919.909,433.298 931.409,426.631 945.5,424.5 Z"/></g>
<g><path style="opacity:0.965" fill="#000000" d="M 1154.5,424.5 C 1165.44,423.753 1175.44,426.42 1184.5,432.5C 1181.49,439.867 1178.49,447.201 1175.5,454.5C 1159.93,445.535 1147.43,448.535 1138,463.5C 1135.05,471.575 1133.38,479.908 1133,488.5C 1132.5,514.165 1132.33,539.831 1132.5,565.5C 1124.5,565.5 1116.5,565.5 1108.5,565.5C 1108.5,519.5 1108.5,473.5 1108.5,427.5C 1115.83,427.5 1123.17,427.5 1130.5,427.5C 1130.33,433.509 1130.5,439.509 1131,445.5C 1136.25,435.405 1144.08,428.405 1154.5,424.5 Z"/></g>
<g><path style="opacity:0.961" fill="#000000" d="M 1245.5,424.5 C 1261.02,423.315 1276.02,425.481 1290.5,431C 1299.64,435.821 1305.47,443.321 1308,453.5C 1309.27,481.469 1309.94,509.469 1310,537.5C 1309.94,547.053 1312.11,556.053 1316.5,564.5C 1307.86,565.498 1299.19,565.831 1290.5,565.5C 1289.02,560.253 1287.86,554.92 1287,549.5C 1266.2,567.557 1242.37,573.057 1215.5,566C 1194.38,557.603 1185.88,542.103 1190,519.5C 1195.09,502.751 1206.25,492.585 1223.5,489C 1236.81,486.837 1250.14,484.837 1263.5,483C 1270.61,481.805 1277.61,480.138 1284.5,478C 1287.73,461.121 1281.06,450.455 1264.5,446C 1251.56,443.437 1239.23,445.104 1227.5,451C 1222.29,456.416 1218.62,462.749 1216.5,470C 1208.84,469.752 1201.17,469.252 1193.5,468.5C 1195.06,449.546 1204.73,436.713 1222.5,430C 1230.13,427.445 1237.8,425.612 1245.5,424.5 Z M 1283.5,497.5 C 1289.2,525.029 1278.2,542.195 1250.5,549C 1241.04,550.516 1232.04,549.183 1223.5,545C 1211.99,534.63 1211.66,523.964 1222.5,513C 1225.38,511.392 1228.38,510.059 1231.5,509C 1244.15,506.574 1256.81,504.241 1269.5,502C 1274.48,501.097 1279.14,499.597 1283.5,497.5 Z"/></g>
<g><path style="opacity:0.957" fill="#000000" d="M 1381.5,424.5 C 1398.12,423.181 1413.79,426.348 1428.5,434C 1438.83,441.455 1444.16,451.622 1444.5,464.5C 1437.09,465.01 1429.76,466.01 1422.5,467.5C 1420.3,457.8 1414.63,450.966 1405.5,447C 1394.41,443.759 1383.41,444.092 1372.5,448C 1360.11,456.007 1359.44,464.674 1370.5,474C 1389.83,480 1409.17,486 1428.5,492C 1446.82,500.934 1453.66,515.434 1449,535.5C 1442.72,552.781 1430.55,563.281 1412.5,567C 1399.51,568.977 1386.51,568.977 1373.5,567C 1351.04,561.615 1338.04,547.449 1334.5,524.5C 1342.74,522.608 1351.08,521.275 1359.5,520.5C 1361.43,535.936 1370.1,545.103 1385.5,548C 1396.43,549.753 1406.76,548.087 1416.5,543C 1428.74,532.564 1428.41,522.898 1415.5,514C 1402.63,509.867 1389.63,506.2 1376.5,503C 1364.53,500.688 1354.36,495.188 1346,486.5C 1333.47,463.899 1337.97,445.399 1359.5,431C 1366.69,427.878 1374.02,425.711 1381.5,424.5 Z"/></g>
<g><path style="opacity:0.947" fill="#000000" d="M 1596.5,424.5 C 1607.28,423.82 1616.95,426.653 1625.5,433C 1622.9,440.369 1619.9,447.536 1616.5,454.5C 1599.4,445.311 1586.56,449.311 1578,466.5C 1576.68,471.1 1575.68,475.766 1575,480.5C 1574.5,508.831 1574.33,537.165 1574.5,565.5C 1566.17,565.5 1557.83,565.5 1549.5,565.5C 1549.5,519.5 1549.5,473.5 1549.5,427.5C 1556.83,427.5 1564.17,427.5 1571.5,427.5C 1571.33,433.842 1571.5,440.175 1572,446.5C 1576.96,435.364 1585.12,428.031 1596.5,424.5 Z"/></g>
<g><path style="opacity:0.957" fill="#000000" d="M 1833.5,424.5 C 1852.19,422.627 1868.69,427.627 1883,439.5C 1890.36,447.877 1894.69,457.544 1896,468.5C 1888.25,470.155 1880.42,471.488 1872.5,472.5C 1869.21,455.716 1859.05,446.383 1842,444.5C 1818.02,447.49 1805.35,461.157 1804,485.5C 1802.32,500.24 1803.99,514.573 1809,528.5C 1817.37,543.6 1830.2,550.1 1847.5,548C 1864.67,543.524 1873.67,532.358 1874.5,514.5C 1882.5,515.5 1890.5,516.5 1898.5,517.5C 1893.6,550.563 1874.44,567.563 1841,568.5C 1815.25,568.73 1796.58,557.397 1785,534.5C 1776.36,509.503 1776.36,484.503 1785,459.5C 1794.6,438.733 1810.77,427.066 1833.5,424.5 Z"/></g>
<g><path style="opacity:0.966" fill="#000000" d="M 2184.5,424.5 C 2194.76,423.85 2204.26,426.184 2213,431.5C 2213.67,432.833 2213.67,434.167 2213,435.5C 2210.53,441.757 2208.36,448.09 2206.5,454.5C 2201.96,452.735 2197.29,451.235 2192.5,450C 2180.08,448.628 2171.58,453.795 2167,465.5C 2165.03,471.696 2163.69,478.029 2163,484.5C 2162.5,511.498 2162.33,538.498 2162.5,565.5C 2154.5,565.5 2146.5,565.5 2138.5,565.5C 2138.5,519.5 2138.5,473.5 2138.5,427.5C 2145.83,427.5 2153.17,427.5 2160.5,427.5C 2160.33,433.509 2160.5,439.509 2161,445.5C 2165.6,434.72 2173.44,427.72 2184.5,424.5 Z"/></g>
<g><path style="opacity:0.954" fill="#000000" d="M 2275.5,424.5 C 2316.92,423.417 2340.42,443.417 2346,484.5C 2346.5,490.825 2346.67,497.158 2346.5,503.5C 2312.5,503.5 2278.5,503.5 2244.5,503.5C 2244.48,526.676 2255.48,541.51 2277.5,548C 2298.82,550.508 2313.16,541.675 2320.5,521.5C 2321.17,521.167 2321.83,520.833 2322.5,520.5C 2330.14,521.747 2337.81,522.747 2345.5,523.5C 2337,554.275 2316.66,569.275 2284.5,568.5C 2247.83,567.999 2226.33,549.665 2220,513.5C 2215.99,489.228 2220.65,466.895 2234,446.5C 2245.04,433.733 2258.87,426.4 2275.5,424.5 Z M 2280.5,444.5 C 2305.19,445.189 2318.52,457.856 2320.5,482.5C 2295.5,482.5 2270.5,482.5 2245.5,482.5C 2247.55,460.786 2259.22,448.119 2280.5,444.5 Z"/></g>
<g><path style="opacity:0.967" fill="#000000" d="M 446.5,427.5 C 454.5,427.5 462.5,427.5 470.5,427.5C 470.042,461.535 470.542,495.535 472,529.5C 476.349,541.679 485.016,547.679 498,547.5C 515.344,547.176 526.677,538.843 532,522.5C 533.052,516.883 533.718,511.216 534,505.5C 534.5,479.502 534.667,453.502 534.5,427.5C 542.5,427.5 550.5,427.5 558.5,427.5C 558.5,473.5 558.5,519.5 558.5,565.5C 551.167,565.5 543.833,565.5 536.5,565.5C 536.666,559.491 536.499,553.491 536,547.5C 522.389,564.932 504.555,571.765 482.5,568C 461.959,564.793 450.126,552.959 447,532.5C 446.5,497.502 446.333,462.502 446.5,427.5 Z"/></g>
<g><path style="opacity:0.965" fill="#000000" d="M 1637.5,427.5 C 1645.5,427.5 1653.5,427.5 1661.5,427.5C 1661.33,453.169 1661.5,478.835 1662,504.5C 1662.16,513.217 1662.83,521.884 1664,530.5C 1668.66,542.144 1677.33,547.811 1690,547.5C 1707.73,547.088 1719.07,538.422 1724,521.5C 1725.45,490.203 1725.95,458.869 1725.5,427.5C 1733.5,427.5 1741.5,427.5 1749.5,427.5C 1749.5,473.5 1749.5,519.5 1749.5,565.5C 1742.5,565.5 1735.5,565.5 1728.5,565.5C 1728.67,559.491 1728.5,553.491 1728,547.5C 1712.81,566.34 1693.31,572.84 1669.5,567C 1648.21,560.956 1637.71,546.789 1638,524.5C 1637.5,492.168 1637.33,459.835 1637.5,427.5 Z"/></g>
<g><path style="opacity:0.946" fill="#000000" d="M 1990.5,427.5 C 1998.83,427.5 2007.17,427.5 2015.5,427.5C 2015.03,461.541 2015.53,495.541 2017,529.5C 2021.25,541.739 2029.92,547.739 2043,547.5C 2063.31,546.856 2074.97,536.522 2078,516.5C 2078.5,486.835 2078.67,457.169 2078.5,427.5C 2086.83,427.5 2095.17,427.5 2103.5,427.5C 2103.5,473.5 2103.5,519.5 2103.5,565.5C 2096.17,565.5 2088.83,565.5 2081.5,565.5C 2081.67,559.491 2081.5,553.491 2081,547.5C 2067.39,564.932 2049.56,571.765 2027.5,568C 2002.33,562.873 1990.16,547.373 1991,521.5C 1990.5,490.168 1990.33,458.835 1990.5,427.5 Z"/></g>
</svg>
