<?xml version="1.0" encoding="UTF-8"?>
<!DOCTYPE svg PUBLIC "-//W3C//DTD SVG 1.1//EN" "http://www.w3.org/Graphics/SVG/1.1/DTD/svg11.dtd">
<svg xmlns="http://www.w3.org/2000/svg" version="1.1" width="1024px" height="1024px" style="shape-rendering:geometricPrecision; text-rendering:geometricPrecision; image-rendering:optimizeQuality; fill-rule:evenodd; clip-rule:evenodd" xmlns:xlink="http://www.w3.org/1999/xlink">
<g><path style="opacity:0.997" fill="#1c1c1a" d="M -0.5,-0.5 C 340.833,-0.5 682.167,-0.5 1023.5,-0.5C 1023.5,340.833 1023.5,682.167 1023.5,1023.5C 682.167,1023.5 340.833,1023.5 -0.5,1023.5C -0.5,682.167 -0.5,340.833 -0.5,-0.5 Z M 305.5,175.5 C 307.451,175.227 308.951,175.893 310,177.5C 332.528,263.613 355.361,349.613 378.5,435.5C 401.655,349.216 424.655,262.882 447.5,176.5C 460.667,176.167 473.833,175.833 487,175.5C 502.533,175.393 518.033,175.893 533.5,177C 561.061,182.559 579.228,198.726 588,225.5C 606.667,295.5 625.333,365.5 644,435.5C 667.622,349.348 690.789,263.015 713.5,176.5C 763.827,180.943 814.16,186.277 864.5,192.5C 865.614,193.723 865.781,195.056 865,196.5C 822.517,357.099 780.35,517.766 738.5,678.5C 697.043,666.849 655.71,654.682 614.5,642C 585.214,631.714 565.714,611.881 556,582.5C 541.164,527.822 526.331,473.155 511.5,418.5C 488.305,504.757 465.305,591.09 442.5,677.5C 440.234,678.206 437.901,678.039 435.5,677C 394.545,664.845 353.545,652.845 312.5,641C 289.359,631.192 272.859,614.692 263,591.5C 259.871,583.32 257.205,574.987 255,566.5C 222.656,442.79 190.156,319.123 157.5,195.5C 157.818,194.353 158.484,193.519 159.5,193C 208.361,187.554 257.028,181.72 305.5,175.5 Z M 384.5,761.5 C 395.167,761.5 405.833,761.5 416.5,761.5C 416.5,801.833 416.5,842.167 416.5,882.5C 405.833,882.5 395.167,882.5 384.5,882.5C 384.666,875.159 384.5,867.826 384,860.5C 376.872,873.327 366.039,881.16 351.5,884C 312.241,888.061 292.741,870.561 293,831.5C 287.267,848.032 281.934,864.699 277,881.5C 265.915,882.487 254.748,882.821 243.5,882.5C 239.948,863.96 235.615,845.626 230.5,827.5C 225.691,845.404 221.191,863.404 217,881.5C 206,882.833 195,882.833 184,881.5C 175.064,852.858 166.23,824.192 157.5,795.5C 168.48,794.501 179.48,794.168 190.5,794.5C 194.181,813.416 198.681,832.083 204,850.5C 208.408,831.959 212.242,813.292 215.5,794.5C 225.5,794.5 235.5,794.5 245.5,794.5C 249.051,813.364 253.218,832.031 258,850.5C 262.859,832.043 267.026,813.376 270.5,794.5C 281.838,794.333 293.172,794.5 304.5,795C 302.274,801.843 299.941,808.676 297.5,815.5C 297.833,815.833 298.167,816.167 298.5,816.5C 312.501,795.439 331.835,788.272 356.5,795C 370.737,799.571 379.904,809.071 384,823.5C 384.5,802.836 384.667,782.169 384.5,761.5 Z M 426.5,761.5 C 437.167,761.5 447.833,761.5 458.5,761.5C 458.333,784.169 458.5,806.836 459,829.5C 465.374,805.876 480.874,793.543 505.5,792.5C 518.313,792.822 529.479,797.156 539,805.5C 542.614,810.394 545.448,815.728 547.5,821.5C 555.769,802.352 570.436,792.685 591.5,792.5C 621.288,793.788 636.955,809.288 638.5,839C 636.955,868.712 621.288,884.212 591.5,885.5C 570.941,885.231 556.275,875.898 547.5,857.5C 540.154,874.52 527.154,883.687 508.5,885C 482.161,886.757 465.661,874.924 459,849.5C 458.5,860.495 458.333,871.495 458.5,882.5C 447.833,882.5 437.167,882.5 426.5,882.5C 426.5,842.167 426.5,801.833 426.5,761.5 Z M 698.5,792.5 C 709.447,793.053 717.613,798.053 723,807.5C 736.453,792.199 752.286,789.032 770.5,798C 779.015,805.533 782.849,815.033 782,826.5C 793.455,798.688 813.955,788.188 843.5,795C 859.956,799.791 869.79,810.624 873,827.5C 874.162,833.445 874.662,839.445 874.5,845.5C 853.5,845.5 832.5,845.5 811.5,845.5C 812.323,860.812 820.323,866.978 835.5,864C 838.362,863.07 840.695,861.403 842.5,859C 852.161,858.5 861.828,858.334 871.5,858.5C 867.353,870.146 859.353,877.979 847.5,882C 829.323,887.77 812.323,885.437 796.5,875C 789.536,868.912 784.702,861.412 782,852.5C 781.5,862.494 781.334,872.494 781.5,882.5C 770.833,882.5 760.167,882.5 749.5,882.5C 749.667,863.83 749.5,845.164 749,826.5C 747.691,821.083 744.191,818.417 738.5,818.5C 732.179,818.321 728.346,821.321 727,827.5C 726.5,845.83 726.333,864.164 726.5,882.5C 715.833,882.5 705.167,882.5 694.5,882.5C 694.667,864.164 694.5,845.83 694,827.5C 691.081,818.63 685.247,816.13 676.5,820C 674.383,821.731 672.883,823.898 672,826.5C 671.5,845.164 671.333,863.83 671.5,882.5C 660.833,882.5 650.167,882.5 639.5,882.5C 639.5,853.5 639.5,824.5 639.5,795.5C 649.833,795.5 660.167,795.5 670.5,795.5C 670.176,799.555 670.509,803.555 671.5,807.5C 678.129,798.023 687.129,793.023 698.5,792.5 Z"/></g>
<g><path style="opacity:0.936" fill="#1c1c1a" d="M 333.5,813.5 C 343.745,811.045 351.245,814.378 356,823.5C 356.495,825.473 356.662,827.473 356.5,829.5C 345.5,829.5 334.5,829.5 323.5,829.5C 323.821,822.173 327.155,816.84 333.5,813.5 Z"/></g>
<g><path style="opacity:0.933" fill="#1c1c1a" d="M 821.5,813.5 C 835.341,810.376 843.007,815.71 844.5,829.5C 833.5,829.5 822.5,829.5 811.5,829.5C 811.83,822.152 815.163,816.819 821.5,813.5 Z"/></g>
<g><path style="opacity:0.951" fill="#1c1c1a" d="M 501.5,815.5 C 511.452,814.303 517.119,818.636 518.5,828.5C 527.475,829.498 536.475,829.832 545.5,829.5C 545.5,835.833 545.5,842.167 545.5,848.5C 536.5,848.5 527.5,848.5 518.5,848.5C 516.932,859.532 510.599,863.699 499.5,861C 494.664,859.181 491.831,855.681 491,850.5C 488.56,840.131 489.56,830.131 494,820.5C 496.17,818.177 498.67,816.51 501.5,815.5 Z"/></g>
<g><path style="opacity:0.957" fill="#1c1c1a" d="M 588.5,815.5 C 598.453,814.385 604.287,818.719 606,828.5C 607.763,837.648 607.096,846.648 604,855.5C 597.826,862.098 590.659,863.264 582.5,859C 578.226,852.898 576.226,846.065 576.5,838.5C 576.595,832.594 577.761,826.927 580,821.5C 582.322,818.605 585.155,816.605 588.5,815.5 Z"/></g>
<g><path style="opacity:0.907" fill="#1d1d1a" d="M 323.5,845.5 C 343.833,845.5 364.167,845.5 384.5,845.5C 384.5,849.833 384.5,854.167 384.5,858.5C 374.478,858.168 364.478,858.501 354.5,859.5C 347.096,865.174 339.096,866.008 330.5,862C 325.561,857.62 323.227,852.12 323.5,845.5 Z"/></g>
</svg>
