<?xml version="1.0" encoding="UTF-8" standalone="no"?>
<svg
   xmlns:dc="http://purl.org/dc/elements/1.1/"
   xmlns:cc="http://creativecommons.org/ns#"
   xmlns:rdf="http://www.w3.org/1999/02/22-rdf-syntax-ns#"
   xmlns:svg="http://www.w3.org/2000/svg"
   xmlns="http://www.w3.org/2000/svg"
   xmlns:sodipodi="http://sodipodi.sourceforge.net/DTD/sodipodi-0.dtd"
   xmlns:inkscape="http://www.inkscape.org/namespaces/inkscape"
   version="1.0"
   width="867px"
   height="857px"
   viewBox="0 0 8670 8570"
   preserveAspectRatio="xMidYMid meet"
   id="svg14"
   sodipodi:docname="igd3.svg"
   inkscape:version="0.92.2 5c3e80d, 2017-08-06">
  <metadata
     id="metadata20">
    <rdf:RDF>
      <cc:Work
         rdf:about="">
        <dc:format>image/svg+xml</dc:format>
        <dc:type
           rdf:resource="http://purl.org/dc/dcmitype/StillImage" />
        <dc:title></dc:title>
      </cc:Work>
    </rdf:RDF>
  </metadata>
  <defs
     id="defs18" />
  <sodipodi:namedview
     pagecolor="#ffffff"
     bordercolor="#666666"
     borderopacity="1"
     objecttolerance="10"
     gridtolerance="10"
     guidetolerance="10"
     inkscape:pageopacity="0"
     inkscape:pageshadow="2"
     inkscape:window-width="1445"
     inkscape:window-height="862"
     id="namedview16"
     showgrid="false"
     inkscape:zoom="0.77889008"
     inkscape:cx="414.23467"
     inkscape:cy="448.72687"
     inkscape:window-x="0"
     inkscape:window-y="0"
     inkscape:window-maximized="0"
     inkscape:current-layer="svg14" />
  <path
     style="fill:#000000;stroke:none;stroke-width:0"
     d="M 408.09961 8 C 402.59961 8 399.89961 9.7 397.59961 14.5 C 395.69961 18.5 396.2 25.1 398.5 27 C 403 30.7 412.20078 30.400391 415.80078 26.400391 C 419.10078 22.700391 418.90039 15.199609 415.40039 11.099609 C 413.20039 8.3996098 412.09961 8 408.09961 8 z M 445 9 C 440.1 9 434 15.399219 434 20.699219 C 434 24.999219 436.10039 28.7 439.40039 30 C 442.40039 31.3 448.50039 31.200391 451.40039 29.900391 C 454.20039 28.600391 457 23.499609 457 19.599609 C 457 13.499609 451.9 9 445 9 z M 483.30078 12.800781 C 478.30078 12.800781 472 19.200781 472 24.300781 C 472 27.600781 475.3 31.900781 479 33.300781 C 481.5 34.300781 488.3 33.099609 491 31.099609 C 493.7 29.099609 495.49961 23.299609 494.59961 19.599609 C 493.79961 16.399609 487.80078 12.800781 483.30078 12.800781 z M 368.42383 14.345703 C 367.1927 14.293335 365.93672 14.469141 364.69922 14.900391 C 360.79922 16.300391 356 20.8 356 23 C 356 30.1 361.50078 35 369.30078 35 C 373.40078 35 374.59922 34.5 377.19922 32 C 379.79922 29.4 380.19922 28.400391 379.69922 25.400391 C 378.64297 19.062891 373.75872 14.572632 368.42383 14.345703 z M 523.63477 18.011719 C 516.93066 17.921875 509 22.5 509 29.5 C 509 37.5 520.90078 43 527.30078 38 C 530.90078 35.1 533.50039 27.899219 532.40039 23.699219 C 531.23789 19.799219 527.65723 18.065625 523.63477 18.011719 z M 328.40039 20.800781 C 322.50039 20.800781 319.90078 23.099609 319.30078 29.099609 C 318.80078 34.799609 321.29961 38.900391 327.09961 41.900391 C 332.39961 44.500391 335.50078 44.000391 339.30078 39.900391 C 342.60078 36.400391 342.8 31.900781 340 27.300781 C 337.3 22.700781 333.80039 20.800781 328.40039 20.800781 z M 557.56641 25.306641 C 551.04617 25.171558 544.49297 29.824219 544.69922 36.699219 C 544.89922 42.599219 549.09922 45.800391 556.69922 45.900391 C 559.99922 46.000391 561.7 45.400781 564 43.300781 C 566.2 41.200781 567.19961 39.300781 567.59961 35.800781 C 568.19961 31.700781 567.90078 30.799219 565.80078 28.699219 C 563.48828 26.417969 560.53015 25.368042 557.56641 25.306641 z M 297.33398 30.53125 C 295.47957 30.445288 293.34375 31.087891 290.5 32.400391 C 284.3 35.200391 283.1 37.7 285 43.5 C 287.8 52 292.90039 54.699609 300.40039 51.599609 C 307.60039 48.599609 309.3 40.599609 304 34.599609 C 301.6375 31.955859 299.71824 30.641772 297.33398 30.53125 z M 590.45898 39.824219 C 589.60088 39.803345 588.79336 39.917969 588.09961 40.199219 C 584.19961 41.599219 581.09961 44.900781 580.09961 48.800781 C 578.79961 53.300781 580.09922 56.5 584.19922 59 C 588.19922 61.5 593.40078 60.899609 596.80078 57.599609 C 599.30078 55.199609 600.59961 49.5 599.59961 45.5 C 598.86836 42.575 594.17744 39.914673 590.45898 39.824219 z M 262.90234 46.78125 C 262.12266 46.796094 261.34961 46.899609 260.59961 47.099609 C 255.59961 48.499609 253 51.799609 253 56.599609 C 253 61.799609 255.9 65.500391 261 66.900391 C 265.8 68.200391 266.5 68.200781 269.5 66.800781 C 273 65.200781 276.39961 59.6 275.59961 56.5 C 274.19961 50.9 268.36016 46.677344 262.90234 46.78125 z M 625.80078 57 C 619.30078 57 614.49961 59.200391 612.59961 62.900391 C 609.39961 69.000391 611.40039 73.899609 618.40039 77.099609 C 623.40039 79.399609 623.39961 79.400391 627.59961 77.400391 C 629.69961 76.400391 631.6 74.299609 633 71.599609 C 637.2 62.799609 634.40078 57 625.80078 57 z M 228.27539 63.240234 C 225.25811 63.284399 222.34336 64.212891 220.59961 65.900391 C 216.19961 70.300391 218.70039 80.999609 224.90039 84.599609 C 228.90039 86.799609 235.89922 85.799609 238.69922 82.599609 C 243.79922 76.599609 242.2 68.700781 235 64.800781 C 233.03125 63.707031 230.62217 63.205884 228.27539 63.240234 z M 655.69922 72 C 650.79922 72 648.40039 73.299219 646.40039 77.199219 C 644.30039 81.299219 645.29922 86.1 649.19922 90.5 C 653.49922 95.5 658.20078 95.399219 663.80078 90.199219 C 669.40078 84.999219 669.19922 82.200781 662.69922 75.300781 C 660.19922 72.700781 658.79922 72 655.69922 72 z M 200.5918 81.023438 C 198.25764 80.873363 195.90547 82.469141 192.69922 85.900391 C 187.29922 91.600391 186.10078 95.000781 188.30078 98.300781 C 191.90078 103.90078 202.89922 105.90078 206.69922 101.80078 C 212.19922 95.800782 212.10039 90.1 206.40039 84.5 C 204.21289 82.3125 202.40725 81.140161 200.5918 81.023438 z M 690.55273 94.361328 C 687.59028 94.460986 682.96953 96.4 679.80078 99 C 676.60078 101.7 676 102.69961 676 106.09961 C 676 111.29961 677.40078 113.8 681.30078 115.5 C 686.50078 117.8 690.99922 117.40078 694.19922 114.30078 C 696.39922 112.20078 697 110.70078 697 107.30078 C 697 102.30078 694.50078 95.399609 692.30078 94.599609 C 691.83203 94.412109 691.23638 94.33833 690.55273 94.361328 z M 167.85352 104.91992 C 164.3952 105.05875 161.92773 107.64453 160.09961 112.90039 C 158.19961 118.80039 158.7 121.50039 162.5 124.90039 C 166.6 128.40039 172.00078 129.10039 175.80078 126.40039 C 178.80078 124.30039 181 119.79922 181 115.69922 C 181 111.69922 177.10039 107.5 171.40039 105.5 C 170.38789 105.1625 169.44277 104.96975 168.55859 104.92383 C 168.31913 104.91139 168.08407 104.91067 167.85352 104.91992 z M 716.59961 118 C 712.79961 118 711.40078 118.60078 708.30078 121.30078 C 704.90078 124.50078 704.80039 124.90078 705.40039 129.30078 C 706.30039 134.90078 709.29961 139 712.59961 139 C 713.99961 139 717.09961 138.50039 719.59961 137.90039 C 728.39961 135.70039 730.79961 127.60039 724.59961 121.40039 C 721.69961 118.50039 720.49961 118 716.59961 118 z M 141 129 C 137.5 129 132.4 132.40039 130.5 135.90039 C 125.3 146.00039 135.1 154.29961 146.5 149.59961 C 148.3 148.79961 150.30039 147.29922 150.90039 146.19922 C 152.40039 143.49922 152.19961 137.99922 150.59961 135.19922 C 148.89961 132.09922 144.1 129 141 129 z M 741.69922 145 C 729.69922 145 726.7 159 737.5 164.5 C 742.6 167 746.5 166.40039 751 162.40039 C 754.1 159.60039 755 157.99961 755 155.59961 C 754.9 149.59961 749.09922 145 741.69922 145 z M 117.25391 158.47852 C 116.95267 158.46857 116.64697 158.46991 116.33594 158.48242 C 115.3063 158.52384 114.22461 158.69063 113.09961 159 C 108.59961 160.2 103.80078 165.00039 103.80078 168.40039 C 103.80078 171.50039 107.40039 176.59961 111.40039 179.09961 C 115.30039 181.59961 119.39922 180.90078 123.19922 177.30078 C 131.10059 169.6628 126.59227 158.78678 117.25391 158.47852 z M 765.30078 174 C 760.40078 174 755.09961 176.59922 752.59961 180.19922 C 751.39961 181.89922 751.39922 182.8 752.69922 186.5 C 754.29922 191.4 755.59922 192.8 759.69922 194 C 765.39922 195.7 768.8 195.10039 772.5 191.90039 C 777.2 187.70039 777.40039 182.7 772.90039 177.5 C 770.20039 174.5 769.20078 174 765.30078 174 z M 91.800781 183.69922 L 89.199219 186.40039 C 86.799219 188.70039 86.5 189.79922 86.5 195.69922 C 86.5 202.19922 86.6 202.50078 90 204.80078 C 92.9 206.80078 94.400781 207.10078 98.800781 206.80078 C 101.70078 206.50078 104.79961 205.70039 105.59961 204.90039 C 106.39961 204.00039 107.10078 201.1 107.30078 198 L 107.5 192.59961 L 99.699219 188.19922 L 91.800781 183.69922 z M 664 186 L 664 202.5 L 664 219 L 660.80078 219 L 657.69922 219 L 658.30078 206.59961 L 658.90039 194.30078 L 649.80078 193.59961 C 644.80078 193.29961 638.1 193 635 193 L 629.30078 193 L 628.80078 245.5 C 628.50078 274.4 628.10039 298.20039 627.90039 298.40039 C 627.70039 298.60039 619.50078 298.49961 609.80078 298.09961 L 592.09961 297.5 L 591.5 300.90039 L 590.90039 304.30078 L 566.5 303.69922 L 542.19922 303.19922 L 541.59961 317.30078 C 541.19961 325.10078 540.3 379 539.5 437 C 538.6 495 537.5 548.6 537 556 C 536.5 563.4 536.1 580.70039 536 594.40039 L 536 619.30078 L 551.80078 618.59961 C 560.40078 618.19961 574.9 617.5 584 617 C 593.1 616.5 609.80078 615.80039 621.30078 615.40039 L 642 614.80078 L 642 621.90039 L 642 629 L 656.5 629 L 671 629 L 671 626 L 671 623 L 681.80078 623 L 692.5 623 L 689.30078 502.80078 C 685.30078 351.10078 685.40039 363 688.40039 363 L 690.80078 363 L 691.40039 341.30078 C 691.70039 329.30078 692.29961 289.49922 692.59961 252.69922 L 693.19922 186 L 678.59961 186 L 664 186 z M 435.26172 186.41797 C 434.97578 186.38203 434.64922 186.57578 434.19922 186.80078 C 433.29922 187.30078 429.20078 188.90039 425.30078 190.40039 L 418 193.19922 L 418 197.69922 L 418 202.19922 L 362 201.5 L 306 200.69922 L 305.90039 221.59961 C 305.90039 233.09961 305.49961 286.8 305.09961 341 C 304.59961 395.2 304.39961 439.70039 304.59961 439.90039 C 304.79961 440.10039 320.59922 439.29961 339.69922 438.09961 C 358.79922 436.89961 377.7 436 381.5 436 C 385.4 436 390.79961 435.70039 393.59961 435.40039 L 398.80078 434.69922 L 398.30078 430.90039 L 397.69922 427 L 407.90039 427 L 418 427 L 418 493.59961 L 418 560.30078 L 404.80078 559.59961 C 397.50078 559.29961 385.89961 558.70078 379.09961 558.30078 L 366.80078 557.69922 L 367.40039 549.59961 C 367.70039 545.09961 368.19961 537.40078 368.59961 532.30078 L 369.19922 523.19922 L 362.5 522.5 L 355.90039 521.80078 L 356.40039 518.09961 C 357.10039 513.29961 358.30039 488.00039 357.90039 487.90039 C 357.70039 487.90039 352.39922 487.49922 346.19922 487.19922 L 335 486.5 L 334.90039 491.5 C 334.80039 494.3 334.19961 504.2 333.59961 513.5 L 332.30078 530.5 L 332.09961 516.59961 L 332 502.80078 L 322.5 503.19922 C 317.3 503.39922 312.89922 503.8 312.69922 504 C 312.19922 504.6 310.3 536.90039 309 566.90039 C 308.5 578.10039 307.80039 592.10039 307.40039 597.90039 L 306.69922 608.59961 L 342.59961 609.80078 C 362.39961 610.50078 392.5 611.49961 409.5 612.09961 C 435 612.89961 455.80078 613.80078 470.80078 614.80078 L 473 615 L 473 589.80078 C 473 575.90078 472.6 551 472 534.5 C 471.5 518 470.6 478.2 470 446 C 468 334.1 466 216.39961 466 205.59961 L 466 194.69922 L 458.30078 195.40039 C 446.20078 196.50039 445 196.89961 445 199.59961 C 445 201.49961 444.5 202 442.5 202 C 440.5 202 439.89961 201.30078 439.09961 198.30078 C 436.62461 188.70078 436.11953 186.52578 435.26172 186.41797 z M 210.19922 200 C 204.19922 200 195.19922 200.29961 190.19922 200.59961 L 181 201.30078 L 181 232.09961 L 181 263 L 184 263 C 186 263 187 263.5 187 264.5 C 187 265.5 188.10078 265.99961 190.80078 266.09961 C 192.80078 266.19961 201.9 266.60039 211 266.90039 L 227.5 267.5 L 228.69922 263 C 229.39922 260.5 230 258.20078 230 257.80078 C 230 257.30078 228.7 257 227 257 C 224.5 257 224 256.59922 224 254.69922 C 224 247.89922 228.50039 221.79922 231.40039 211.69922 L 234.80078 200 L 230.59961 200 C 228.29961 200 225.50039 200.7 224.40039 201.5 C 221.90039 203.4 221 203.4 221 201.5 C 221 200.3 219.09922 200 210.19922 200 z M 781.50195 203.67188 C 778.72527 203.77419 776.00039 204.69648 773.90039 206.59961 C 769.90039 210.19961 772.80078 221.80039 778.30078 223.90039 C 780.80078 224.90039 784.20078 224.40078 788.30078 222.30078 C 792.10078 220.40078 795.10078 215.3 794.30078 212 C 793.17578 207.0625 787.98828 203.92285 782.69336 203.67773 C 782.29624 203.65935 781.89862 203.65726 781.50195 203.67188 z M 77.216797 219.3125 C 76.59707 219.32656 75.987891 219.3875 75.400391 219.5 C 68.500391 220.7 64.200781 227.30039 66.300781 233.40039 C 67.400781 236.60039 75.099609 242 78.599609 242 C 79.799609 242 81.900391 241.10039 83.400391 239.90039 C 87.100391 237.00039 89.600781 228.10078 87.800781 224.30078 C 86.400781 221.41328 81.554883 219.21406 77.216797 219.3125 z M 800.30078 235 C 795.60078 235 794.40039 235.40039 791.90039 237.90039 C 789.70039 240.20039 789 241.79922 789 244.69922 C 789.1 249.09922 790.3 251.00039 795 253.90039 C 799.3 256.50039 802.59922 256.6 806.69922 254 C 813.89922 249.7 814.80039 242.49961 808.90039 237.59961 C 806.40039 235.49961 804.80078 235 800.30078 235 z M 402.30078 249 L 418 249 L 418 315.5 C 418 381.7 418 382 416 382 C 414.9 382 404.79922 382.7 393.69922 383.5 C 382.59922 384.3 370.30039 385.20039 366.40039 385.40039 C 362.50039 385.70039 358.99961 385.70078 358.59961 385.30078 C 358.29961 385.00078 358 354.4 358 317.5 L 358 250.30078 L 372.30078 249.69922 C 380.10078 249.29922 393.60078 249 402.30078 249 z M 57.304688 250.13672 C 55.293749 250.09922 54.449219 250.85039 52.199219 253.40039 C 48.699219 257.50039 48.3 259.70039 50.5 263.90039 C 52.9 268.60039 57.700391 272 61.900391 272 C 64.800391 272 66.300781 271.29922 68.800781 268.69922 C 76.800781 260.49922 72.700781 252.20039 59.800781 250.40039 C 58.775781 250.25039 57.975 250.14922 57.304688 250.13672 z M 812.64453 267.17383 C 810.32422 267.24414 808.74961 267.975 805.59961 270 C 800.99961 273 800.80078 273.29922 801.30078 276.69922 C 802.50078 283.79922 807.49922 287.9 815.19922 288 C 817.69922 288 819.8 287.20078 822 285.30078 C 825 282.80078 825.20078 282.30078 824.80078 277.30078 C 824.20078 270.30078 821.90078 267.90078 815.30078 267.30078 C 814.27578 267.20078 813.41797 267.15039 812.64453 267.17383 z M 48 282 C 44.8 282 40.299219 286.70078 39.199219 291.30078 C 37.599219 297.40078 38.600391 299.89961 43.400391 302.09961 C 48.400391 304.39961 51.900781 304.50039 54.800781 302.40039 C 57.300781 300.70039 61 293.99922 61 291.19922 C 61 287.59922 53.1 282 48 282 z M 208.63672 299.32422 C 206.57422 299.34922 205.29961 299.50078 205.09961 299.80078 C 204.79961 300.30078 203.00078 301.1 201.30078 301.5 C 198.20078 302.1 198 302.39961 198 306.59961 C 198 310.29961 197.7 311 196 311 C 194.3 311 194 310.3 194 306 C 194 300.5 193.90078 300.49961 186.80078 301.59961 C 183.10078 302.19961 183 302.39961 183 306.59961 C 183 309.79961 182.6 311 181.5 311 C 179.5 311 179.49961 312.79961 182.09961 363.09961 C 183.29961 385.89961 184.19961 410.8 184.09961 418.5 C 183.99961 432.3 179.70039 565.29961 178.40039 592.59961 L 177.80078 606.80078 L 188.40039 607.5 C 197.90039 608.2 199 608.39961 199 610.09961 C 199 611.89961 199.9 612 211 612 L 223 612 L 223.19922 598.80078 L 223.30078 585.5 L 224.30078 599.5 L 225.19922 613.5 L 231.19922 613.19922 L 237.19922 612.80078 L 236.59961 607.69922 C 236.29961 604.79922 235.80039 598.80078 235.40039 594.30078 C 234.80039 587.00078 234.90039 586 236.40039 586 C 237.90039 586 238 581.19922 238 532.19922 C 238 502.59922 237.70078 441.79922 237.30078 397.19922 L 236.69922 316 L 231.19922 316 L 225.80078 316 L 226.40039 312 C 226.70039 309.8 227.29961 306.29961 227.59961 304.09961 L 228.09961 300.30078 L 216.90039 299.59961 C 213.55039 299.39961 210.69922 299.29922 208.63672 299.32422 z M 825.53125 301.46484 C 823.825 301.42676 821.83789 301.7875 819.40039 302.5 L 813.90039 304.09961 L 814.19922 310.19922 C 814.49922 316.19922 814.60078 316.49922 818.80078 319.69922 C 823.90078 323.59922 826.5 323.80078 831 320.80078 C 836.8 316.80078 837.3 310.89922 832.5 305.19922 C 830.4375 302.69922 828.375 301.52832 825.53125 301.46484 z M 41.800781 317.69922 C 38.400781 317.69922 30.499609 324 29.599609 327.5 C 28.699609 330.9 30.600781 337.70039 32.800781 338.90039 C 36.800781 341.30039 41.300781 340.20039 46.800781 335.40039 C 51.100781 331.60039 52 330.3 52 327.5 C 52 320.2 49.400781 317.69922 41.800781 317.69922 z M 833.04492 337.30273 C 825.82581 337.34521 819.56836 345.14453 822.09961 351.80078 C 824.49961 358.10078 828.20039 359.90039 835.90039 358.40039 C 840.80039 357.40039 845 352.89961 845 348.59961 C 845 343.49961 840 338.10039 834.5 337.40039 C 834.0125 337.33164 833.5262 337.2999 833.04492 337.30273 z M 583.69922 344 L 605.80078 344 L 628 344 L 628 371.80078 C 627.9 415.10078 626.20078 565.1 625.80078 565.5 C 625.60078 565.7 619.8 566.40039 613 566.90039 C 606.1 567.50039 597.00078 568.29961 592.80078 568.59961 L 585 569.30078 L 585 512.90039 C 585 481.90039 584.70078 431.20078 584.30078 400.30078 L 583.69922 344 z M 36.03125 353.17969 C 30.751172 353.03066 27.175391 355.43711 24.900391 360.59961 C 22.600391 365.59961 23.000391 369.8 25.900391 372.5 C 30.100391 376.2 37.600781 376.59922 41.300781 373.19922 C 43.800781 370.99922 45.7 367.30039 46.5 362.90039 C 47.4 357.90039 44.400391 354.30039 38.400391 353.40039 C 37.575391 353.27539 36.785547 353.20098 36.03125 353.17969 z M 839.33789 371.03711 C 835.25039 370.84961 831.14961 372.69922 829.09961 376.69922 C 827.69961 379.39922 827.7 385 829 388.5 C 830.7 393 838.29961 394.40039 844.59961 391.40039 C 848.09961 389.70039 851 385.6 851 382.5 C 851 381.5 850.3 379.39961 849.5 377.59961 C 847.5 373.44961 843.42539 371.22461 839.33789 371.03711 z M 29 386 C 27.8 386 25.100391 387.70078 22.900391 389.80078 C 19.600391 392.90078 18.700781 394.39961 18.300781 398.09961 C 17.700781 403.69961 19.100781 406.69961 23.300781 408.59961 C 27.100781 410.29961 35.199609 409.90039 37.599609 407.90039 C 38.899609 406.90039 39.100781 405.19922 38.800781 399.69922 C 38.400781 393.19922 38.199219 392.60039 34.699219 389.40039 C 32.699219 387.50039 30.1 386 29 386 z M 840.09961 405.07422 C 837.82461 405.14922 835.5 405.60039 833.5 406.40039 C 830.3 407.80039 830 408.19922 830 412.19922 C 830 418.29922 831.70078 423.7 834.30078 425.5 C 836.80078 427.2 844.19961 427.5 847.09961 426 C 849.29961 424.8 852 418.90078 852 415.30078 C 852 411.70078 849.20039 407 846.40039 406 C 844.60039 405.3 842.37461 404.99922 840.09961 405.07422 z M 412.5 408 C 415.5 408 418 408.5 418 409 C 418 409.6 415.5 410 412.5 410 C 409.5 410 407 409.6 407 409 C 407 408.5 409.5 408 412.5 408 z M 26.949219 424.66797 C 19.582886 424.63794 18 426.61914 18 434.40039 C 18 441.50039 19.700781 444.70078 23.800781 445.30078 C 27.500781 445.90078 32.000781 444.99922 34.800781 443.19922 C 37.800781 441.19922 39 438.1 39 432 C 39 425.9 37.5 424.89922 28.5 424.69922 C 27.95625 424.68047 27.440308 424.66997 26.949219 424.66797 z M 837.80078 440 C 830.70078 440.1 828 443.50039 828 452.40039 L 828 457.80078 L 832.30078 459.40039 C 834.60078 460.20039 837.4 461.10078 838.5 461.30078 C 839.6 461.60078 840.59922 461.80039 840.69922 461.90039 C 840.79922 461.90039 842.1 461.50078 843.5 460.80078 C 845 460.10078 846.79961 458.40039 847.59961 456.90039 C 848.99961 454.00039 849.50039 447.4 848.40039 444.5 C 847.40039 442.1 842.60078 440 837.80078 440 z M 33.679688 458.65039 C 32.48125 458.65039 31.225391 458.79961 29.900391 459.09961 C 23.900391 460.49961 23 461.49922 23 467.19922 C 23 477.89922 29.699219 483.30039 38.699219 479.90039 C 43.899219 478.00039 46 475.1 46 470 C 46 466.2 45.499219 464.89922 43.199219 462.69922 C 40.349219 459.99922 37.274999 458.65039 33.679688 458.65039 z M 834.82422 474.26172 C 832.88828 474.23203 831.00039 474.55078 829.40039 475.30078 C 822.80039 478.50078 822.59961 489.90039 829.09961 495.40039 C 832.79961 498.50039 835.19961 498.70039 839.59961 495.90039 C 844.69961 492.80039 847.49961 487.49922 847.09961 481.69922 C 846.87461 477.57422 840.63203 474.35078 834.82422 474.26172 z M 41.714844 491.67578 C 40.257031 491.64453 38.525 491.925 36.5 492.5 C 29.9 494.4 25 498.30039 25 501.40039 C 25 506.40039 33.500391 515 38.400391 515 C 39.600391 515 41.800781 513.80039 43.300781 512.40039 C 46.700781 509.20039 48 506.10039 48 500.90039 C 48 494.67539 46.088281 491.76953 41.714844 491.67578 z M 826.0293 508.28906 C 822.19961 508.21875 820.1 509.85039 818 513.90039 C 814.4 521.10039 815.70078 527.1 821.30078 529.5 C 825.40078 531.3 825.69922 531.29961 830.69922 529.09961 C 835.39922 526.89961 837.6 524.09922 838.5 518.69922 C 839.6 513.19922 837.4 510.40039 830.5 508.90039 C 828.775 508.52539 827.30586 508.3125 826.0293 508.28906 z M 49.175781 524.11328 C 47.500781 524.15078 45.649609 524.95 43.599609 526.5 C 41.799609 527.9 39.9 529 39.5 529 C 37.6 529 35 532.49961 35 535.09961 C 35 538.49961 36.599219 542.89922 38.699219 545.19922 C 40.699219 547.49922 46.100781 547.50039 50.300781 545.40039 C 59.400781 540.80039 60.699219 533.90078 53.699219 526.30078 C 52.349219 524.80078 50.850781 524.07578 49.175781 524.11328 z M 818.92188 542.33789 C 816.80272 542.38086 814.53711 543.53711 811.09961 546.09961 L 806.80078 549.19922 L 807.19922 555.19922 C 807.59922 559.99922 808.10039 561.69961 809.90039 563.09961 C 812.90039 565.59961 818.1 565.5 823 563 C 827.7 560.6 829 558.50078 829 553.30078 C 829 548.70078 827.00078 545.60039 822.80078 543.40039 C 821.41328 542.68789 820.19335 542.31211 818.92188 542.33789 z M 59.121094 558.22266 C 58.524219 558.21172 57.899219 558.27539 57.199219 558.40039 C 51.799219 559.20039 49 562.49922 49 567.69922 C 49 573.79922 50.300781 575.79961 56.300781 578.59961 C 61.900781 581.29961 65.999219 581.20078 69.199219 578.30078 C 71.199219 576.50078 71.699609 569.90078 70.099609 565.80078 C 69.599609 564.50078 67.3 562.09961 65 560.59961 C 62.45 558.94961 60.911719 558.25547 59.121094 558.22266 z M 804.56641 578.70508 C 803.91543 578.71211 803.28672 578.77539 802.69922 578.90039 C 797.89922 580.00039 796.10039 581.6 793.90039 586.5 C 791.10039 592.5 791.49922 593.50039 797.69922 597.40039 C 804.39922 601.60039 807.80039 601.89961 810.90039 598.59961 C 813.60039 595.79961 816.3 587.40078 815.5 584.30078 C 814.8 581.32578 809.12324 578.65586 804.56641 578.70508 z M 70 594 C 63 594 59.399219 598.80078 61.199219 605.80078 C 62.399219 610.50078 67.899219 617 70.699219 617 C 71.799219 617 75.199219 615.2 78.199219 613 C 83.699219 609.1 83.8 609.00078 83 605.30078 C 81.4 598.20078 76.5 594 70 594 z M 791.90039 609 C 789.00039 609 783.49961 611.50039 781.09961 613.90039 C 776.89961 618.10039 779.40039 627.49961 785.40039 630.09961 C 788.30039 631.29961 795 630.29961 798 628.09961 C 802.1 625.19961 803.29922 621.69922 801.69922 617.69922 C 799.99922 613.79922 794.70039 609 791.90039 609 z M 89.75 625.15039 C 84.556934 625.32238 79.96875 628.14844 78 633 C 75.8 638.3 80.299609 644.60078 88.099609 646.80078 C 93.099609 648.30078 92.9 648.29922 97 644.19922 C 103.7 637.59922 103.4 629.30039 96.5 626.40039 C 94.6 625.62539 92.66875 625.21797 90.796875 625.15234 C 90.445898 625.14004 90.096204 625.13892 89.75 625.15039 z M 769.90625 639.28906 C 768.3 639.23125 766.775 639.57539 765.5 640.40039 C 762.2 642.60039 759.90078 647.29961 759.80078 652.09961 C 759.80078 656.59961 761.2 658.79961 765.5 660.59961 C 768.8 661.99961 771.7 661.59961 777 659.09961 C 781.7 656.89961 783.5 653.1 782 648.5 C 780.275 643.25 774.725 639.4625 769.90625 639.28906 z M 106.44141 651.84766 C 104.48027 651.91797 102.56328 652.88828 100.80078 654.80078 C 95.700782 660.20078 94.599609 665.60078 97.599609 669.80078 C 99.699609 672.90078 102.40078 673.90039 108.80078 673.90039 C 113.10078 674.00039 114.5 673.6 116.5 671.5 C 119.8 668.3 119.69961 664.50078 116.09961 658.80078 C 113.09961 654.11328 109.70996 651.73047 106.44141 651.84766 z M 750.03516 668.24609 C 745.24453 668.29297 740.64922 671.8 738.69922 677.5 C 737.09922 681.9 737.20078 681.99961 739.80078 685.09961 C 741.20078 686.89961 744.20039 689.09961 746.40039 690.09961 C 751.90039 692.49961 755.70078 691 758.80078 685 C 762.50078 677.6 761.30078 672.70039 754.80078 669.40039 C 753.25078 668.60039 751.63203 668.23047 750.03516 668.24609 z M 128.74609 680.58984 C 127.30762 680.5293 126.36328 680.84961 125.30078 681.59961 C 120.00078 684.99961 118.60039 693.7 122.40039 699.5 C 123.70039 701.5 124.89961 702 128.09961 702 C 130.39961 702 133.7 701.30039 135.5 700.40039 C 137.3 699.60039 139.8 697.8 141 696.5 C 143.1 694.3 143.19922 693.69922 142.19922 690.19922 C 140.69922 685.19922 137.5 682.29961 132 681.09961 C 130.65 680.79961 129.60918 680.62617 128.74609 680.58984 z M 727.30078 695 C 724.50078 695 722.90039 695.80039 719.90039 698.90039 C 716.50039 702.20039 716 703.39922 716 707.19922 C 716 712.09922 718.60039 716.5 722.40039 718 C 725.30039 719.2 725.69922 719.20078 730.19922 717.80078 C 734.49922 716.50078 740 711.00039 740 707.90039 C 740 702.20039 732.90078 695 727.30078 695 z M 151 706 C 148.2 706 147.60039 706.6 144.90039 712.5 C 141.80039 718.9 141.70078 721.60039 144.30078 724.90039 C 147.00078 728.20039 154.3 728.9 159.5 726.5 C 165.1 723.8 166.80078 716.5 162.80078 711.5 C 160.30078 708.3 155.4 706 151 706 z M 699.70117 721.06641 C 697.53833 721.04993 695.41211 721.69336 693.59961 723.09961 C 690.39961 725.59961 688 730.00039 688 733.40039 C 688 737.00039 693.30078 742.59922 697.80078 743.69922 C 702.70078 744.89922 706.2 743.70039 710 739.40039 C 713.4 735.50039 713.59961 734.29922 711.59961 729.69922 C 709.39961 724.33672 704.45942 721.10266 699.70117 721.06641 z M 186.5 732 C 180.3 732 177.50039 733.6 174.90039 738.5 C 173.00039 742.1 172.79961 743.39922 173.59961 746.69922 C 174.29961 749.79922 175.1 750.69922 178 751.69922 C 183 753.39922 187.59922 753.30078 191.69922 751.30078 C 195.69922 749.50078 198.4 744.39922 197.5 740.69922 C 197.1 739.39922 195.50039 736.99922 193.90039 735.19922 C 191.40039 732.49922 190.2 732 186.5 732 z M 670.59961 742 C 659.09961 742 653.29922 750.49961 659.69922 758.09961 C 662.99922 761.89961 667.7 765 670.5 765 C 671.6 765 673.60039 764.30039 674.90039 763.40039 C 680.20039 759.60039 681.7 749.09961 677.5 744.59961 C 675.6 742.49961 674.19961 742 670.59961 742 z M 214.68555 752.66797 C 210.70586 752.78047 207.72422 754.52539 205.69922 757.90039 C 204.19922 760.50039 204.19961 761.19961 205.59961 766.09961 C 208.39961 775.69961 212.40039 777.9 219.90039 774 C 225.70039 771.1 228.29922 767.29922 227.69922 762.69922 C 226.89922 756.69922 224.7 754.29961 219 753.09961 C 217.45 752.77461 216.01211 752.63047 214.68555 752.66797 z M 635.16992 763.12305 C 633.04541 763.20508 630.98828 763.93164 629.30078 765.40039 C 626.90078 767.50039 626.5 768.50078 626.5 773.30078 C 626.5 777.40078 627 779.4 628.5 781 C 632.4 785.3 638.19922 786.2 642.19922 783 C 643.59922 781.9 645.5 779.40039 646.5 777.40039 C 647.9 774.40039 648.00039 773.40039 646.90039 770.90039 C 644.83789 765.88164 639.84385 762.94258 635.16992 763.12305 z M 248.16016 772.11133 C 246.05547 772.14414 244.94961 772.95 242.09961 775.5 C 236.29961 780.8 236.60078 786.39922 242.80078 791.69922 C 246.10078 794.49922 250.49922 794.6 254.69922 792 C 258.69922 789.6 260.09922 787.00078 260.19922 781.80078 C 260.29922 776.40078 256.89922 773.00078 250.69922 772.30078 C 249.67422 772.17578 248.86172 772.10039 248.16016 772.11133 z M 603.62695 779.1875 C 602.99922 779.20547 602.35547 779.27539 601.69922 779.40039 C 596.39922 780.40039 593.5 784.19922 593.5 790.19922 C 593.5 796.89922 596.79961 800 604.09961 800 C 608.29961 800 609.59961 799.49961 612.09961 797.09961 C 618.94336 790.16211 613.04297 778.91797 603.62695 779.1875 z M 280.80078 786.5 C 275.40078 786.5 270.79961 791.20078 270.59961 796.80078 C 270.49961 801.50078 273.39961 806.09922 277.09961 807.19922 C 280.19961 808.09922 285.89961 807.2 288.59961 805.5 C 291.59961 803.6 293.39961 798.69961 292.59961 794.59961 C 291.79961 790.29961 286.30078 786.5 280.80078 786.5 z M 567.04297 794.69531 C 564.77246 794.66211 563.28711 795.84961 561.09961 798.59961 C 557.39961 803.29961 558.99961 810.50039 564.59961 814.90039 C 567.89961 817.50039 572.49922 817.6 576.69922 815 C 580.99922 812.4 582.3 809.59961 581.5 805.09961 C 580.6 800.29961 578.70078 798.4 572.30078 796 C 570.05078 795.175 568.40527 794.71523 567.04297 794.69531 z M 318.78125 800.10742 C 317.4166 800.15371 315.77461 800.49961 313.59961 801.09961 C 308.09961 802.59961 305 805.99922 305 810.69922 C 305 815.29922 307.20039 818.69961 311.40039 820.59961 C 315.60039 822.49961 319.90039 821.59961 323.40039 818.09961 C 325.60039 815.89961 326.40078 813.99922 326.80078 810.19922 C 327.20078 805.59922 327 804.89961 324.5 802.59961 C 322.5625 800.78711 321.05566 800.03027 318.78125 800.10742 z M 536.59961 805.35547 C 530.88101 805.45967 525.80586 809.92578 525.59961 816.80078 C 525.49961 821.10078 528.3 825.29961 532.5 827.09961 C 535.1 828.19961 541.90078 827.30039 544.80078 825.40039 C 546.70078 824.10039 547 823.1 547 817 C 547 810.8 546.80039 809.89961 544.40039 808.09961 C 541.93164 806.16211 539.19897 805.30811 536.59961 805.35547 z M 349.09961 811 C 342.39961 811 340 813.90039 340 821.90039 C 340 829.50039 341.2 830.90039 348.5 831.90039 C 349.1 831.90039 351.09961 831.5 353.09961 831 C 358.09961 829.6 361.40039 825.80078 361.40039 821.30078 C 361.40039 818.50078 360.69922 817.10039 357.69922 814.40039 C 354.59922 811.50039 353.29961 811 349.09961 811 z M 500.11328 812.20117 C 496.71014 812.19066 493.25859 813.78672 490.69922 817.19922 C 488.19922 820.49922 488.99922 825.59961 492.69922 830.09961 C 497.19922 835.39961 503.70039 836.60039 508.40039 832.90039 C 512.30039 829.90039 513.30078 826.60039 511.80078 821.90039 C 509.96016 815.66602 505.0871 812.21654 500.11328 812.20117 z M 387.64648 813.25977 C 384.60269 813.16228 381.6125 814.67422 379 817.69922 C 376 820.99922 375.80039 821.70078 376.40039 826.30078 C 377.40039 834.90078 381.49922 837.40078 390.19922 834.80078 C 401.19922 831.50078 402.20078 819.80039 391.80078 814.40039 C 390.42578 813.68164 389.03003 813.30408 387.64648 813.25977 z M 461.86914 815.17578 C 459.67539 815.08203 458.77578 815.77461 456.30078 818.09961 C 451.30078 822.99961 450.7 824.5 452 828.5 C 453.8 833.9 457.50078 836.29922 463.30078 835.69922 C 466.00078 835.49922 469.40078 834.40078 470.80078 833.30078 C 473.00078 831.70078 473.60078 830.39922 473.80078 826.19922 C 474.20078 819.59922 471.49961 816.5 464.59961 815.5 C 463.47461 815.325 462.60039 815.20703 461.86914 815.17578 z M 427.80078 820.36328 C 426.67578 820.30078 425.35078 820.7 422.80078 821.5 C 419.90078 822.5 416.90078 823.90078 416.30078 824.80078 C 415.60078 825.70078 415 828.99922 415 832.19922 L 415 838.09961 L 419.30078 840 C 421.60078 841.1 425.39922 842 427.69922 842 C 431.09922 842 432.30039 841.5 434.40039 839 C 439.70039 832.6 438.69961 826.5 431.59961 822 C 429.84961 820.95 428.92578 820.42578 427.80078 820.36328 z "
     id="path2"
     transform="scale(10)" />
</svg>
